<?xml version="1.0" encoding="utf-8"?>
<!-- Generator: Adobe Illustrator 16.0.0, SVG Export Plug-In . SVG Version: 6.00 Build 0)  -->
<!DOCTYPE svg PUBLIC "-//W3C//DTD SVG 1.1//EN" "http://www.w3.org/Graphics/SVG/1.1/DTD/svg11.dtd">
<svg version="1.1" xmlns="http://www.w3.org/2000/svg" xmlns:xlink="http://www.w3.org/1999/xlink" x="0px" y="0px" width="576px"
	 height="576px" viewBox="0 0 576 576" enable-background="new 0 0 576 576" xml:space="preserve">
<g id="Layer_1">
	<circle fill="#BF2333" cx="286.997" cy="284" r="284"/>
	<path fill="none" d="M174.24,544.182C31.054,482.99-35.415,317.307,25.778,174.122C86.97,30.936,252.653-35.531,395.838,25.662
		c143.186,61.192,209.654,226.874,148.463,370.057C483.105,538.908,317.425,605.375,174.24,544.182z"/>
	<text transform="matrix(0.3652 0.9309 -0.9309 0.3652 28.8662 374.082)"><tspan x="0" y="0" fill="#FFFFFF" font-family="'Blackout-Midnight'" font-size="42.6248">b</tspan><tspan x="21.724" y="-0.001" fill="#FFFFFF" font-family="'Blackout-Midnight'" font-size="42.6248" rotate="-4.682">e</tspan><tspan x="44.51" y="-1.913" fill="#FFFFFF" font-family="'Blackout-Midnight'" font-size="42.6248" rotate="-9.392"> </tspan><tspan x="66.189" y="-5.431" fill="#FFFFFF" font-family="'Blackout-Midnight'" font-size="42.6248" rotate="-14.473">y</tspan><tspan x="91.704" y="-12.012" fill="#FFFFFF" font-family="'Blackout-Midnight'" font-size="42.6248" rotate="-20.229">o</tspan><tspan x="117.977" y="-21.74" fill="#FFFFFF" font-family="'Blackout-Midnight'" font-size="42.6248" rotate="-26.178">u</tspan><tspan x="142.913" y="-34.163" fill="#FFFFFF" font-family="'Blackout-Midnight'" font-size="42.6248" rotate="-31.59">r</tspan><tspan x="162.357" y="-46.175" fill="#FFFFFF" font-family="'Blackout-Midnight'" font-size="42.6248" rotate="-36.346"> </tspan><tspan x="180.152" y="-59.142" fill="#FFFFFF" font-family="'Blackout-Midnight'" font-size="42.6248" rotate="-41.608">o</tspan><tspan x="201.517" y="-77.613" fill="#FFFFFF" font-family="'Blackout-Midnight'" font-size="42.6248" rotate="-48.905">w</tspan><tspan x="228.708" y="-109.606" fill="#FFFFFF" font-family="'Blackout-Midnight'" font-size="42.6248" rotate="-56.149">n</tspan><tspan x="243.301" y="-131.594" fill="#FFFFFF" font-family="'Blackout-Midnight'" font-size="42.6248" rotate="-61.292"> </tspan><tspan x="253.942" y="-150.859" fill="#FFFFFF" font-family="'Blackout-Midnight'" font-size="42.6248" rotate="-66.495">h</tspan><tspan x="264.537" y="-175.531" fill="#FFFFFF" font-family="'Blackout-Midnight'" font-size="42.6248" rotate="-71.786">e</tspan><tspan x="271.669" y="-197.293" fill="#FFFFFF" font-family="'Blackout-Midnight'" font-size="42.6248" rotate="-76.635">r</tspan><tspan x="277.055" y="-219.602" fill="#FFFFFF" font-family="'Blackout-Midnight'" font-size="42.6248" rotate="-81.998">o</tspan></text>
	<g>
		<path fill="#010101" d="M484.412,452.399c1.461-0.584,2.79-1.027,4.042-0.2c2.655,1.752,5.327,3.496,6.611,6.652
			c0.568,1.397,0.407,2.637-0.44,3.786c-1.551,2.111-3.175,4.169-4.739,6.271c-0.411,0.549-0.768,0.634-1.312,0.205
			c-1.708-1.347-3.45-2.645-5.146-4.004c-4.926-3.953-9.836-7.924-14.751-11.883c-0.914-0.738-0.971-1.181-0.231-2.122
			c1.271-1.617,2.538-3.236,3.824-4.837c1.886-2.344,4.556-2.777,7.034-1.044c1.486,1.038,2.896,2.196,4.261,3.392
			C484.643,449.56,484.893,450.828,484.412,452.399z M482.812,457.639c1.888,1.608,3.775,3.226,5.682,4.822
			c0.104,0.088,0.413,0.069,0.53-0.021c0.898-0.701,1.095-2.037,0.295-2.824c-1.012-0.997-2.082-1.959-3.252-2.753
			C484.697,455.934,483.929,456.181,482.812,457.639z M479.439,454.89c1.104-0.961,1.151-1.897,0.099-2.88
			c-0.608-0.567-1.262-1.093-1.928-1.592c-1.382-1.031-1.929-0.907-2.952,0.67C476.248,452.351,477.845,453.621,479.439,454.89z"/>
		<path fill="#010101" d="M517.219,417.173c1.387,0.986,2.592,1.848,3.801,2.702c0.522,0.369,1.02,0.576,1.574-0.006
			c0.527-0.548,0.703-1.113,0.266-1.754c-0.873-1.283-2.006-2.298-3.464-2.836c-0.45-0.166-1.063-0.074-1.553,0.072
			c-1.367,0.408-2.708,0.908-4.057,1.372c-2.156,0.738-4.159,0.536-5.968-0.941c-0.967-0.792-1.996-1.517-2.91-2.362
			c-1.57-1.451-2.151-3.271-1.582-5.351c0.459-1.684,1.439-3.076,2.813-4.136c2.385-1.846,4.383-1.895,6.881-0.194
			c0.934,0.637,1.805,1.363,2.712,2.042c0.499,0.375,0.594,0.746,0.145,1.257c-0.747,0.849-1.461,1.729-2.162,2.616
			c-0.294,0.369-0.535,0.375-0.882,0.08c-0.681-0.579-1.378-1.135-2.082-1.687c-0.561-0.438-1.147-0.495-1.696,0.011
			c-0.581,0.531-0.533,1.143-0.16,1.776c0.941,1.601,2.941,2.201,4.619,1.434c1.133-0.518,2.289-0.991,3.46-1.416
			c1.927-0.702,3.821-0.453,5.451,0.71c1.733,1.24,3.412,2.596,4.929,4.091c1.679,1.657,1.963,3.854,0.801,5.905
			c-0.705,1.248-1.616,2.47-2.696,3.403c-2.199,1.907-4.66,1.841-7.282-0.002c-1.168-0.82-2.244-1.772-3.379-2.64
			c-0.417-0.317-0.39-0.613-0.102-0.973C515.526,419.302,516.357,418.257,517.219,417.173z"/>
		<path fill="#010101" d="M503.925,424.266c0.815-1.028,1.618-1.982,2.353-2.985c0.408-0.556,0.798-0.532,1.258-0.154
			c0.736,0.603,1.446,1.242,2.193,1.83c0.422,0.334,0.461,0.626,0.106,1.03c-0.685,0.785-1.319,1.617-2.02,2.387
			c-0.422,0.459-0.417,0.767,0.088,1.153c1.368,1.054,2.71,2.143,4.062,3.217c0.446,0.356,0.895,0.711,1.475,1.172
			c1.403-1.765,2.75-3.459,4.164-5.238c1.15,0.914,2.184,1.708,3.17,2.557c0.126,0.106,0.109,0.589-0.022,0.753
			c-2.112,2.659-4.253,5.293-6.388,7.933c-0.384,0.472-0.803,0.419-1.241,0.07c-0.889-0.704-1.771-1.412-2.666-2.104
			c-5.806-4.472-11.606-8.945-17.424-13.396c-0.668-0.51-1.014-0.9-0.355-1.696c1.46-1.762,2.852-3.582,4.278-5.373
			c0.54-0.676,1.107-1.324,1.648-2c0.402-0.502,0.82-0.513,1.295-0.112c0.683,0.572,1.343,1.18,2.068,1.689
			c0.594,0.414,0.505,0.758,0.11,1.23c-0.932,1.119-1.845,2.26-2.761,3.397c-0.146,0.181-0.26,0.387-0.426,0.637
			C500.533,421.57,502.152,422.857,503.925,424.266z"/>
		<path fill="#010101" d="M494.56,426.414c-0.903,1.138-1.729,2.176-2.632,3.312c1.791,1.423,3.496,2.763,5.187,4.124
			c3.898,3.14,7.777,6.3,11.687,9.422c0.597,0.478,0.7,0.898,0.239,1.484c-0.748,0.953-1.463,1.936-2.271,2.837
			c-0.127,0.141-0.737,0.028-0.989-0.151c-1.093-0.776-2.146-1.61-3.192-2.445c-4.45-3.545-8.898-7.092-13.328-10.662
			c-0.504-0.405-0.802-0.461-1.223,0.091c-0.504,0.66-1.135,1.222-1.654,1.873c-0.394,0.496-0.776,0.484-1.212,0.133
			c-0.858-0.692-1.731-1.367-2.528-2.125c-0.151-0.146-0.102-0.736,0.069-0.956c2.053-2.664,4.145-5.299,6.233-7.938
			c0.332-0.42,0.729-0.795,1.021-1.239c0.455-0.689,0.915-0.715,1.53-0.204C492.454,424.769,493.444,425.528,494.56,426.414z"/>
		<path fill="#010101" d="M488.164,448.349c-3.264-2.594-6.514-5.198-9.794-7.767c-0.595-0.464-0.841-0.82-0.268-1.482
			c0.74-0.853,1.411-1.763,2.102-2.656c0.379-0.487,0.777-0.45,1.217-0.094c0.833,0.672,1.667,1.335,2.504,2.001
			c2.396,1.905,4.775,3.839,7.199,5.71c2.633,2.031,5.321,3.995,7.962,6.017c0.992,0.758,1.907,1.618,2.89,2.388
			c0.479,0.372,0.456,0.667,0.096,1.096c-0.668,0.796-1.298,1.628-1.95,2.441c-0.65,0.808-0.911,0.837-1.757,0.17
			c-3.201-2.522-6.399-5.05-9.599-7.577c-0.163-0.13-0.327-0.261-0.489-0.389C488.238,448.253,488.201,448.3,488.164,448.349z"/>
	</g>
	<g>
		<path fill="#FFFFFF" d="M409.896,504.411c-2.094-2.992-4.476-6.14-7.442-8.795c-0.938-0.838-0.633-1.833-0.526-2.803
			c0.1-0.911,0.943-1.207,1.612-1.514c0.681-0.308,2.155,0.575,2.687,1.319c1.813,2.538,3.659,5.053,5.505,7.569
			c0.188,0.255,0.444,0.459,0.748,0.767c0.278-0.439,0.529-0.793,0.743-1.173c2.543-4.505,3.785-9.43,4.626-14.479
			c0.251-1.506,0.877-2.009,2.411-1.836c0.702,0.077,1.562-0.115,1.902,0.792c0.144,0.386,0.305,0.856,0.217,1.232
			c-1.467,6.259-3.41,12.341-6.661,17.947c-0.28,0.482-0.069,1.25-0.088,2.016c3.227-0.75,6.177-1.434,9.127-2.119
			c0.407-0.094,0.815-0.177,1.216-0.284c0.198-0.053,0.521-0.115,0.55-0.232c0.271-1.089,1.228-1.009,1.994-1.172
			c1.832-0.389,3.671-0.745,5.518-1.038c0.693-0.11,1.452-0.128,2.123,0.041c0.457,0.114,1.093,0.579,1.158,0.969
			c0.1,0.61-0.078,1.26-1.005,1.486c-2.049,0.504-4.056,1.18-6.078,1.789c-0.171,0.051-0.431,0.082-0.481,0.196
			c-0.678,1.541-2.3,1.41-3.513,1.94c-1.963,0.854-4.012,1.508-6.021,2.255c-0.216,0.079-0.415,0.198-0.729,0.353
			c1.649,2.036,3.252,4.014,4.935,6.091c0.451-1.076,1.355-1.035,2.312-1.043c1.416,2.378,1.72,4.954,0.939,7.666
			c-0.176,0.611-1.258,1.221-2.031,1.188c-1.29-0.059-2.127-0.818-2.773-1.851c-1.515-2.422-2.96-4.894-4.574-7.249
			c-0.812-1.186-1.869-2.228-2.928-3.212c-0.875-0.812-1.911-0.913-3.046-0.282c-1.626,0.904-2.225,0.713-2.988-0.99
			c-0.391-0.873-0.758-1.884-0.688-2.799C408.711,506.308,409.371,505.503,409.896,504.411z"/>
		<path fill="#FFFFFF" d="M470.176,474.5c-0.085,2.869-0.201,5.574-0.23,8.277c-0.008,0.845-0.2,1.484-0.927,1.956
			c-0.421,0.273-0.78,0.644-1.189,0.938c-1.296,0.935-2.755,1.081-3.97,0.068c-1.05-0.876-2.069-1.935-2.71-3.123
			c-1.834-3.405-2.709-7.174-3.687-10.886c-0.604-2.301-1.136-4.624-1.648-6.948c-0.082-0.375,0.087-0.822,0.195-1.222
			c0.423-1.541,1.021-3.053,1.254-4.622c0.167-1.11,0.702-1.612,1.613-1.979c1.695-0.684,3.146-0.177,4.067,1.366
			c1.733,2.908,3.188,6.008,5.692,8.395c0.406,0.387,0.832,0.754,1.259,1.121c0.446,0.382,1.146,0.538,1.074,1.369
			c-0.015,0.163,0.341,0.376,0.549,0.534c2.983,2.271,5.964,4.548,8.963,6.799c0.406,0.306,0.596,0.593,0.461,1.107
			c-0.128,0.488-0.148,1.003-0.257,1.497c-0.129,0.595-0.117,1.469-0.493,1.711c-0.955,0.613-2.073,1.007-3.172,1.333
			c-0.275,0.083-0.746-0.398-1.083-0.678c-0.144-0.115-0.188-0.367-0.245-0.565c-0.372-1.307-1.142-2.288-2.191-3.158
			c-0.943-0.783-1.694-1.797-2.544-2.696C470.781,474.907,470.543,474.774,470.176,474.5z M465.566,481.122
			c0.815-2.799,1.016-5.607,0.506-8.474c-0.567-3.188-2.62-5.254-5.302-7.185C461.316,471.129,462.382,476.408,465.566,481.122z"/>
		<path fill="#FFFFFF" d="M428.671,462.252c1.418-0.72,3.432,0.213,3.661,1.669c0.146,0.927,0.447,1.622,1.382,1.957
			c0.192,0.068,0.449,0.317,0.452,0.488c0.035,1.732,1.275,2.851,2.132,4.135c3.737,5.589,7.533,11.136,11.308,16.698
			c0.21,1.785,2.08,2.465,2.686,3.997c0.062,0.159,0.481,0.3,0.691,0.254c0.729-0.16,1.235,0.111,1.762,0.587
			c2.005,1.804,2.188,4.219,2.268,6.655c0.031,1.005-0.258,1.963-1.048,2.66c-0.248,0.219-0.611,0.393-0.935,0.42
			c-0.975,0.082-3.002-1.411-3.058-2.375c-0.072-1.248-0.724-2.183-1.355-3.139c-5.291-8.021-10.555-16.061-15.924-24.029
			c-1.623-2.409-3.538-4.623-5.352-6.901c-0.302-0.38-0.424-0.659-0.139-1.083C427.686,463.527,427.753,462.494,428.671,462.252z"/>
		<path fill="#FFFFFF" d="M437.65,458.652c1.377-0.701,3.359,0.239,3.597,1.705c0.149,0.93,0.486,1.618,1.414,1.956
			c0.187,0.067,0.442,0.317,0.44,0.48c-0.009,1.437,0.946,2.409,1.666,3.474c3.898,5.77,7.824,11.52,11.741,17.277
			c0.169,1.846,2.135,2.524,2.699,4.126c0.048,0.139,0.408,0.211,0.634,0.24c0.399,0.051,0.958-0.115,1.183,0.096
			c0.764,0.715,1.848,1.181,2.083,2.361c0.29,1.452,0.656,2.896,0.835,4.361c0.128,1.049-0.122,2.11-0.902,2.897
			c-0.301,0.303-0.805,0.536-1.229,0.56c-0.864,0.048-2.856-1.415-2.897-2.25c-0.085-1.749-1.191-2.959-2.041-4.283
			c-3.6-5.611-7.159-11.253-10.93-16.747c-3.093-4.508-6.469-8.82-9.695-13.238c-0.164-0.223-0.241-0.68-0.124-0.907
			C436.536,459.972,436.666,458.939,437.65,458.652z"/>
		<path fill="#FFFFFF" d="M433.677,484.768c0.874,3.03,3.14,5.157,4.959,7.562c2.584,3.418,5.26,6.765,7.877,10.157
			c0.964,1.247,0.84,3.574-0.173,4.651c-0.347,0.369-0.676,0.513-1.17,0.259c-0.717-0.367-1.481-0.638-2.184-1.022
			c-0.337-0.188-0.659-0.505-0.845-0.842c-0.546-0.991-1.019-2.022-1.522-3.036c-0.12-0.24-0.201-0.514-0.369-0.712
			c-2.135-2.521-3.432-5.634-5.775-8.022c-1.328-1.354-2.454-2.909-3.639-4.399c-1.071-1.352-1.803-2.875-2.106-4.583
			c-0.257-1.458,0.103-2.741,1.302-3.666c0.246-0.189,0.758-0.195,1.085-0.092c1.398,0.442,1.779,1.721,2.25,2.909
			C433.473,484.207,433.572,484.488,433.677,484.768z"/>
		<path fill="#FFFFFF" d="M422.129,467.748c0.599-0.489,1.313-0.426,1.932,0.024c0.955,0.699,1.888,1.443,2.745,2.259
			c0.625,0.595,0.643,2.018,0.128,2.714c-0.118,0.158-0.395,0.25-0.611,0.282c-1.603,0.242-3.14,0.024-4.604-0.703
			c-0.524-0.258-0.872-0.585-0.887-1.203c-0.007-0.235-0.081-0.469-0.109-0.705C420.531,468.838,420.67,468.569,422.129,467.748z"/>
	</g>
	<path fill="#010101" d="M400.46,518.26c-1.563,1.094-3.134,2.173-4.68,3.29c-0.279,0.203-0.507,0.209-0.995-0.518
		c-0.627-0.937-1.29-1.853-1.943-2.775c-0.354-0.503-0.355-0.771-0.14-0.914c0.407-0.274,0.807-0.553,1.207-0.833
		c1.149-0.804,2.317-1.58,3.44-2.419c1.22-0.911,2.393-1.895,3.604-2.816c0.455-0.347,0.983-0.591,1.446-0.924
		c0.224-0.165,0.426-0.008,0.741,0.456c0.585,0.857,1.192,1.705,1.787,2.562c0.593,0.853,0.629,1.053,0.227,1.339
		c-1.52,1.084-3.042,2.161-4.563,3.241c-0.078,0.054-0.158,0.108-0.234,0.163C400.391,518.161,400.425,518.21,400.46,518.26z"/>
</g>
<g id="Layer_2">
	
		<path fill="#FFFFFF" stroke="#FFFFFF" stroke-width="4" stroke-linecap="round" stroke-linejoin="round" stroke-miterlimit="10" d="
		M283.716,106.393c24.703-14.069,60.144-22.889,99.524-22.889c31.659,0,60.772,5.7,83.808,15.245
		C423.4,47.526,358.428,15.031,285.857,15.031c-71.38,0-135.41,31.436-179.026,81.209c21.917-8.025,48.586-12.736,77.361-12.736
		C223.572,83.504,259.014,92.324,283.716,106.393z"/>
	
		<path fill="#FFFFFF" stroke="#FFFFFF" stroke-width="4" stroke-linecap="round" stroke-linejoin="round" stroke-miterlimit="10" d="
		M511.371,176.834c-17.996,28.011-68.561,48.187-128.131,48.187c-39.38,0-74.821-8.82-99.524-22.889
		c-24.703,14.069-60.144,22.889-99.524,22.889c-56.597,0-105.06-18.215-125.189-44.057c-7.209,22.724-11.11,46.921-11.11,72.032
		c0,131.425,106.54,237.965,237.964,237.965c131.425,0,237.965-106.54,237.965-237.965
		C523.822,226.359,519.444,200.747,511.371,176.834z"/>
	<g>
		<path fill="#BF2333" d="M109.254,297.214c1.059-0.869,1.757-1.439,2.573-2.107c1.216,1.65,2.375,3.228,3.613,4.906
			c0.428-0.15,0.851-0.302,1.324-0.468c1.222,1.854,1.69,3.869,1.433,5.975c-0.252,2.049-0.755,4.063-1.226,6.492
			c0.484-0.592,0.762-0.875,0.974-1.196c1.023-1.558,2.138-3.065,3.018-4.699c1.236-2.295,2.474-3.442,5.575-2.814
			c2.118,0.43,4.628-1.179,6.988-1.791c1.4-0.362,2.852-0.804,4.273-0.782c3.504,0.047,7.006,0.299,10.504,0.563
			c1.018,0.078,2.041,0.397,3.007,0.745c1.986,0.723,3.967,1.478,5.881,2.36c0.554,0.259,1.058,0.928,1.296,1.523
			c3.003,7.534,2.569,15.108,0.102,22.667c-1.083,3.314-2.72,6.341-5.199,8.845c-0.635,0.642-1.367,1.19-2.311,1.562
			c2.436-4.254,4.872-8.506,7.307-12.764c-0.266-0.214-0.53-0.431-0.792-0.644c-0.204,0.436-0.347,0.916-0.623,1.3
			c-1.812,2.538-3.738,4.998-5.468,7.593c-2.401,3.604-5.444,6.361-9.537,8.047c-0.201-0.674-0.367-1.226-0.565-1.892
			c-0.38,0.126-0.77,0.135-0.937,0.329c-1.434,1.708-3.347,1.753-5.375,1.874c-1.737,0.104-3.442,0.746-5.307,1.183
			c-0.118-0.201-0.355-0.615-0.698-1.205c-1.181,1.006-2.308,1.969-3.668,3.129c-0.083-0.92-0.134-1.484-0.196-2.178
			c-0.702,0.206-1.346,0.396-2.038,0.601c-0.19-0.7-0.359-1.324-0.522-1.934c-2.417-0.095-2.417-0.095-3.053-2.146
			c-0.35,0.562-0.644,1.037-0.987,1.588c-0.576-0.139-1.147-0.272-1.764-0.421c-0.351,0.643-0.686,1.249-1.146,2.093
			c-0.559-1.305-1.033-2.405-1.615-3.759c-0.402,0.766-0.667,1.271-1.183,2.253c-0.152-1.62-0.261-2.785-0.371-3.951
			c-0.151-0.024-0.305-0.047-0.458-0.07c-0.273,0.765-0.55,1.526-0.828,2.293c-1.778-0.77-2.19-1.612-1.583-3.522
			c0.728-2.295,1.561-4.554,2.33-6.834c0.174-0.517,0.281-1.058,0.418-1.583c-0.226-0.071-0.452-0.145-0.678-0.219
			c-1.253,3.681-2.508,7.36-3.848,11.295c-1.267-2.146-1.009-4-0.115-5.846c1.669-3.45,3.379-6.88,5.012-10.346
			c0.388-0.823,0.541-1.76,0.8-2.646c-0.2-0.089-0.402-0.176-0.6-0.267c-0.864,1.419-1.883,2.768-2.559,4.272
			c-1.206,2.692-2.12,5.518-3.322,8.212c-0.811,1.816-1.908,3.508-3.029,5.528c-0.67-1.045-1.103-1.717-1.605-2.501
			c-0.229,0.315-0.419,0.576-0.652,0.897c-0.147-0.207-0.256-0.32-0.313-0.453c-1.007-2.325-0.667-4.618,0.27-6.854
			c1.314-3.127,2.7-6.225,4.032-9.344c0.216-0.512,0.308-1.073,0.199-1.705c-4.863,3.417-4.985,8.858-5.866,13.914
			c-2.517,0.289-6.658-2.059-7.47-4.277c-0.2-0.539-0.073-1.28,0.105-1.865c1.751-5.716,4.787-10.788,7.98-15.777
			c1.003-1.569,2.037-3.122,3.003-4.71c0.382-0.625,0.622-1.339,0.924-2.015c-0.11-0.108-0.219-0.216-0.33-0.322
			c-0.581,0.411-1.327,0.705-1.712,1.255c-3.361,4.797-6.893,9.504-9.017,15.033c-0.663,1.729-1.021,3.571-1.618,5.33
			c-0.315,0.929-0.845,1.786-1.278,2.677c-0.187-0.045-0.372-0.089-0.559-0.132c-0.092-1.462-0.185-2.921-0.309-4.863
			c-0.609,1.004-0.944,1.55-1.431,2.353c-0.931-2.857-2.446-5.256-0.86-8.335c1.639-3.183,2.796-6.615,4.007-10.002
			c-3.126,3.472-4.559,7.713-5.538,12.165c-2.024-1.17-2.421-2.253-1.992-4.449c0.387-1.98,0.604-3.997,0.797-6.009
			c0.033-0.354-0.42-0.755-0.647-1.132c-0.24,0.364-0.629,0.704-0.693,1.1c-0.292,1.783-0.482,3.58-0.727,5.37
			c-0.077,0.553-0.219,1.098-0.328,1.649c-0.212-0.031-0.422-0.062-0.632-0.096c0.224-1.42,0.45-2.84,0.675-4.262
			c-0.092-0.076-0.186-0.15-0.279-0.223c-0.298,0.496-0.595,0.994-0.858,1.427c-2.289-1.33-3.184-3.071-2.512-5.339
			c0.9-3.038,2.051-5.999,3.089-8.995c0.171-0.497,0.313-1.001,0.552-1.771c-4.409,1.994-4.21,6.266-5.471,9.708
			c-0.161,0.002-0.324,0.002-0.483,0.006c-0.119-0.896-0.233-1.788-0.367-2.823c-0.369,0.219-0.701,0.418-1.171,0.697
			c-0.424-2.428,0.081-4.588,1.118-6.581c1.863-3.583,3.639-7.248,5.882-10.589c1.65-2.46,3.875-4.584,6.057-6.633
			c1.82-1.714,6.267-1.429,8.039,0.366c1.565,1.582,3.44,2.369,5.525,3.026c3.227,1.021,6.254,2.615,8.608,5.067
			c0.693,0.721,0.792,2.342,0.632,3.474C110.62,293.509,109.902,295.132,109.254,297.214z M82.945,295.505
			c1.335-1.808,2.666-3.619,3.998-5.43C84.322,290.654,82.788,292.772,82.945,295.505z M109.134,298.356
			c-0.087-0.191-0.176-0.383-0.264-0.574c-0.736,0.286-1.726,0.383-2.138,0.92c-0.396,0.52-0.194,1.494-0.257,2.271
			c0.145,0.025,0.289,0.049,0.432,0.076C107.65,300.15,108.393,299.254,109.134,298.356z"/>
		<path fill="#BF2333" d="M78.188,263.707c0.319,0.442,0.558,0.771,0.799,1.105c0.12-0.108,0.244-0.163,0.258-0.239
			c0.288-1.38,0.04-2.855,1.521-3.925c0.594-0.427,0.515-1.786,0.85-3.172c0.714,2.865,1.322,5.305,1.928,7.744
			c0.161-0.009,0.323-0.018,0.484-0.025c0-1.647,0.115-3.307-0.034-4.941c-0.122-1.296-0.565-2.561-0.872-3.838
			c-0.48-2.005,0.123-3.507,1.849-4.562c1.243-0.762,2.494-1.513,3.885-2.355c0.246,1.363,0.453,2.513,0.66,3.663
			c0.127-0.002,0.256-0.006,0.381-0.011c0-1.271,0-2.542,0-3.812c0.236-0.037,0.472-0.076,0.707-0.116
			c0.359,1.527,0.927,3.039,1.029,4.58c0.157,2.345-0.117,4.715-0.003,7.067c0.086,1.807,0.485,3.6,1.061,5.37
			c1.146-2.93,0.847-5.873,0.498-8.816c-0.342-2.927-0.68-5.857-0.722-8.858c0.209,0.342,0.417,0.682,0.843,1.375
			c0.124-1.518,0.21-2.628,0.299-3.737c0.177-0.04,0.354-0.079,0.532-0.118c0.274,0.861,0.604,1.708,0.805,2.586
			c0.198,0.861,0.26,1.755,0.383,2.634c0.147-0.01,0.296-0.02,0.442-0.031c0-2.215,0-4.429,0-6.644
			c0.187-0.039,0.372-0.079,0.559-0.116c0.372,1.219,0.745,2.438,1.117,3.657c0.118-0.008,0.236-0.014,0.354-0.023
			c-0.093-1.5-0.19-3.002-0.293-4.627c0.387,0.157,0.699,0.282,1.138,0.459c0-0.689,0-1.266,0-1.843
			c0.077-0.022,0.157-0.042,0.233-0.059c0.3,0.673,0.6,1.345,1.098,2.47c0.27-0.569,0.449-0.946,0.702-1.477
			c0.163,0.403,0.26,0.537,0.265,0.674c0.115,3.17,0.145,6.347,0.349,9.512c0.219,3.431,0.567,6.853,0.937,10.271
			c0.079,0.731,0.484,1.426,0.899,2.113c0.587-2.254,1.309-4.472-0.015-6.732c-0.283-0.483-0.538-1.18-0.409-1.675
			c1.153-4.407,0.459-8.693-0.67-12.975c-0.476-1.801-0.695-3.594,1.399-5.009c0.188,1.465,0.358,2.803,0.527,4.139
			c0.157,0.005,0.314,0.008,0.472,0.013c0.131-1.469,0.265-2.941,0.396-4.412c0.201,0.008,0.396,0.017,0.594,0.028
			c0.315,4,0.627,8.001,0.942,12.001c0.154-0.01,0.309-0.019,0.462-0.027c0-4.374,0-8.75,0-13.125
			c0.155-0.006,0.31-0.013,0.465-0.02c0.09,1.291,0.183,2.581,0.274,3.872c0.157,0.021,0.315,0.041,0.477,0.059
			c0.09-0.78,0.306-1.57,0.253-2.34c-0.171-2.454,0.542-3.461,2.897-3.939c0.681-0.137,1.342-0.373,2.017-0.562
			c0.19,0.749,0.372,1.461,0.646,2.541c0.375-1.399,0.64-2.397,0.919-3.389c0.021-0.069,0.172-0.103,0.5-0.285
			c0,1.134,0,2.146,0,3.162c0.147,0.021,0.295,0.04,0.441,0.061c0.392-1.256,0.78-2.514,1.192-3.841
			c3.042,0.934,1.417,3.734,2.399,5.483c0.113-1.613,0.226-3.226,0.364-5.238c0.423,0.722,0.662,1.126,1.024,1.743
			c0.497-1.269,0.938-2.396,1.377-3.521c0.111,0.019,0.224,0.039,0.334,0.058c-0.189,1.625-0.374,3.252-0.569,4.879
			c-0.046,0.379-0.209,0.77-0.156,1.13c0.052,0.354,0.314,0.674,0.485,1.008c0.179-0.285,0.466-0.552,0.517-0.859
			c0.278-1.643,0.498-3.295,0.737-4.944c0.148-0.017,0.298-0.036,0.447-0.056c0.17,0.624,0.342,1.246,0.557,2.027
			c0.333-0.642,0.61-1.181,0.956-1.85c1.475,0.731,2.919,1.368,4.262,2.175c0.287,0.173,0.417,1.054,0.251,1.457
			c-0.993,2.43-2.184,4.781-3.134,7.225c-1.505,3.863-2.89,7.773-4.285,11.679c-0.198,0.552-0.198,1.186-0.229,1.785
			c-0.056,1.073-0.036,1.073,1.351,1.376c0.123-8.294,5.157-14.877,7.953-22.328c0,0.788,0.121,1.6-0.032,2.355
			c-0.169,0.845-0.617,1.63-0.892,2.459c-0.259,0.782-0.45,1.585-0.671,2.377c0.141,0.049,0.277,0.096,0.417,0.143
			c0.402-0.93,0.918-1.83,1.18-2.797c0.463-1.707,1.58-2.146,3.241-1.967c-0.137,0.556-0.26,1.062-0.41,1.671
			c0.581-0.089,1.031-0.157,1.56-0.236c0.213,1.442,0.412,2.781,0.654,4.427c2.041-0.289,4.02-0.562,5.995-0.851
			c1.319-0.192,2.518-0.557,3.958,0.123c0.873,0.416,2.281-0.306,3.604-0.544c-0.027,0.582-0.046,1.078-0.086,1.978
			c0.82-1.082,1.406-1.854,2.116-2.792c0.459,0.862,0.854,1.605,1.328,2.493c1.544-1.293,2.075,0.228,2.999,1.066
			c0.307-0.217,0.627-0.441,1.035-0.728c1.573,1.9,5.249,0.625,5.948,3.75c1.157,0.172,2.358,0.141,3.378,0.556
			c1.06,0.429,2.038,1.244,1.275,2.689c2.977,0.72,2.977,0.72,3.576,5.46c0.439,0,0.893,0,0.859,0
			c1.347,2.521,2.649,4.702,3.687,7.001c0.667,1.476,1.117,3.101,1.334,4.704c0.097,0.719-0.487,1.64-0.979,2.313
			c-1.702,2.35-3.509,4.624-5.248,6.946c-0.385,0.515-0.655,1.12-1.073,1.858c1.925,0.008,3.069-0.946,3.902-2.281
			c0.781-1.252,1.381-2.614,2.121-3.892c0.337-0.581,0.822-1.08,1.502-1.952c-0.713,7.685-4.96,12.55-10.631,16.508
			c1.336,0.691,2.732,0.518,4.172-0.775c1.501-1.352,2.816-2.91,4.239-4.349c0.374-0.38,0.846-0.66,1.486-0.907
			c-1.098,1.896,0.615,2.646,1.233,3.922c0.721-0.534,1.366-1.012,2.161-1.604c-0.215,2.223-1.928,3.936-1.875,6.042
			c0.187,0.066,0.373,0.133,0.563,0.2c0.604-0.915,1.213-1.834,1.818-2.747c-1.205,3.963-4.213,6.066-7.809,7.507
			c-0.332,0.134-0.931-0.165-1.303-0.416c-1.001-0.668-1.96-1.405-2.915-2.137c-0.739-0.566-1.881-0.96-0.866-2.533
			c-1.844,1.638-3.009,0.335-4.267-0.424c-2.245-1.355-4.611-2.548-6.683-4.131c-1.053-0.804-1.578-2.303-2.408-3.593
			c-0.777,0.543-1.839,1.285-2.938,2.053c-2.219-1.758-4.36-3.458-6.69-5.304c3.743-6.792,7.457-13.594,8.871-21.37
			c-0.265,0.496-0.542,0.987-0.795,1.491c-2.646,5.228-5.288,10.456-7.921,15.688c-0.569,1.132-1.211,2.06-2.703,2
			c-0.418-0.018-0.857,0.406-1.28,0.637c-0.618,0.339-1.194,0.822-1.856,1.009c-2.128,0.599-3.507-0.619-3.215-2.774
			c0.609-4.504,1.238-9.006,1.85-13.512c0.065-0.48,0.067-0.97-0.061-1.499c-2.177,3.542-0.404,8.434-4.048,11.483
			c0.441,0.537,0.802,0.982,1.343,1.644c-0.809-0.055-1.345-0.091-2.276-0.156c0.784,0.631,1.266,1.019,1.753,1.412
			c-2.532,2.308-2.792,2.355-5.245,1.168c-0.387-6.428,1.494-12.331,3.205-18.27c0.237-0.819,0.391-1.662,0.584-2.492
			c-0.172-0.058-0.341-0.115-0.511-0.172c-2.701,6.806-5.4,13.611-8.248,20.778c-1.243-0.737-2.65-1.179-3.468-2.127
			c-2.181-2.521-3.969-5.279-2.349-8.895c0.189-0.423,0.053-1.063-0.094-1.553c-0.96-3.132-1.01-6.279-0.047-9.39
			c0.725-2.342,0.526-4.631,0.01-7.271c-1.404,2.472-2.144,4.902-2.199,7.383c-0.116,5.305,0.05,10.614,0.119,15.922
			c0.014,1.03,0.113,2.058,0.18,3.217c-0.991,0.077-1.845,0.14-2.793,0.217c-0.083,0.504-0.161,0.972-0.282,1.708
			c-1.209-0.959-2.324-1.84-3.439-2.722c-0.168,0.076-0.337,0.149-0.505,0.222c0.25,1.372,0.499,2.746,0.791,4.364
			c-1.649-0.828-3.093-1.552-4.624-2.317c0.476-1.027,0.897-1.943,1.442-3.12c-0.836,0.057-1.448,0.098-2.125,0.143
			c-0.063,0.701-0.116,1.286-0.185,2.029c-2.752-0.019-2.749-2.643-4.113-4.009c0.506-0.392,0.925-0.716,1.45-1.123
			c-0.533-0.399-0.998-0.745-1.841-1.375c0,2.123,0,3.864,0,5.678c-3.208,0.923-3.667-2.516-5.767-3.739
			c-0.911,2.55-2.72,1.453-4.387,1.19c-1.617-0.255-3.248-0.445-4.88-0.575C81.425,270.672,78.539,267.864,78.188,263.707z
			 M134.503,241.787c-0.204-0.053-0.406-0.106-0.609-0.16c-2.162,3.214-3.653,7.714-2.88,9.624
			C132.256,247.883,133.379,244.836,134.503,241.787z"/>
		<path fill="#BF2333" d="M160.544,334.39c-0.432,0.614-0.865,1.229-1.297,1.847c-0.17-0.037-0.339-0.071-0.509-0.108
			c0.168-1.037,0.17-2.139,0.533-3.104c2.102-5.569,3.153-11.275,2.555-17.232c-0.121-1.196-0.391-2.38-0.5-3.576
			c-0.109-1.195-0.245-2.416-0.113-3.594c0.151-1.374,0.836-2.324,2.512-2.094c3.796,0.525,7.612,0.906,11.39,1.531
			c0.708,0.115,1.657,1.003,1.84,1.703c1.625,6.303,0.279,12.285-2.512,17.953c-0.687,1.398-2.257,2.356-3.66,3.354
			c0.05-6.128,1.314-12.099-0.878-18.011c-0.076,0.984-0.118,1.97-0.23,2.948c-0.429,3.69-0.651,7.426-1.4,11.049
			c-0.589,2.844-1.844,5.572-4.715,6.981c-0.829,0.404-1.814,0.483-2.728,0.711C160.732,334.63,160.639,334.51,160.544,334.39z"/>
		<path fill="#BF2333" d="M69.969,282.01c-1.873-2.156-1.832-3.455,0.138-5.39c0.312-0.309,0.73-0.566,0.907-0.94
			c1.39-2.917,3.972-3.286,6.768-3.243c1.19,0.019,2.382,0.003,3.692,0.003c-0.117,0.674-0.204,1.189-0.316,1.837
			c2.476,0.945,4.916,1.875,7.649,2.92c-0.571,0.771-0.951,1.575-1.575,2.08c-5.647,4.583-10.024,10.072-12.477,16.993
			c-0.088,0.254-0.228,0.495-0.381,0.716c-0.085,0.122-0.25,0.186-0.647,0.467c-1.645-2.463-3.373-4.841-4.828-7.376
			c-0.343-0.593-0.039-1.898,0.42-2.556c1.597-2.275,3.392-4.409,5.482-7.065C72.939,281.055,71.446,281.532,69.969,282.01z"/>
	</g>
	<circle cx="176.569" cy="153.746" r="25.276"/>
	<circle cx="375.806" cy="153.746" r="25.276"/>
	<g>
		<path d="M283.89,481.775c-12.493,0.01-24.356-2.317-35.603-6.964c-11.245-4.655-21.365-11.479-30.367-20.456
			c-8.169-8.329-14.54-17.685-19.132-28.089c-4.593-10.405-7.224-21.35-7.895-32.845l-0.004-5.499l-0.031-37.467l185.856-0.152
			l0.031,37.468c0.011,12.49-2.276,24.445-6.841,35.854c-4.575,11.409-11.266,21.62-20.091,30.622
			c-8.978,8.992-19.097,15.832-30.336,20.508C308.242,479.418,296.38,481.765,283.89,481.775z"/>
	</g>
</g>
</svg>
