<?xml version="1.0" encoding="utf-8"?>
<!-- Generator: Adobe Illustrator 16.0.0, SVG Export Plug-In . SVG Version: 6.00 Build 0)  -->
<!DOCTYPE svg PUBLIC "-//W3C//DTD SVG 1.1//EN" "http://www.w3.org/Graphics/SVG/1.1/DTD/svg11.dtd">
<svg version="1.1" id="Layer_1" xmlns="http://www.w3.org/2000/svg" xmlns:xlink="http://www.w3.org/1999/xlink" x="0px" y="0px"
	 width="288px" height="144px" viewBox="0 0 288 144" enable-background="new 0 0 288 144" xml:space="preserve">
<g>
	<path fill="#C9606C" d="M27.148,41.679c0.655-0.537,1.086-0.889,1.591-1.301c0.752,1.02,1.468,1.994,2.234,3.032
		c0.264-0.093,0.526-0.186,0.818-0.289c0.755,1.147,1.045,2.393,0.887,3.694c-0.156,1.267-0.467,2.513-0.759,4.015
		c0.3-0.365,0.471-0.54,0.603-0.74c0.632-0.962,1.322-1.896,1.865-2.906c0.764-1.418,1.529-2.128,3.447-1.739
		c1.31,0.265,2.861-0.73,4.32-1.107c0.866-0.225,1.763-0.498,2.643-0.485c2.167,0.029,4.333,0.185,6.494,0.349
		c0.629,0.048,1.262,0.245,1.86,0.461c1.228,0.445,2.453,0.912,3.637,1.459c0.342,0.158,0.653,0.573,0.801,0.942
		c1.856,4.658,1.589,9.341,0.063,14.015c-0.669,2.049-1.682,3.92-3.215,5.468c-0.392,0.397-0.844,0.737-1.429,0.967
		c1.507-2.631,3.012-5.26,4.518-7.892c-0.164-0.132-0.328-0.267-0.49-0.399c-0.125,0.27-0.214,0.566-0.385,0.804
		c-1.121,1.57-2.312,3.09-3.38,4.695c-1.485,2.227-3.367,3.932-5.898,4.974c-0.124-0.417-0.227-0.757-0.349-1.168
		c-0.235,0.078-0.476,0.082-0.58,0.203c-0.886,1.056-2.069,1.083-3.323,1.159c-1.074,0.064-2.129,0.461-3.281,0.731
		c-0.073-0.125-0.221-0.38-0.432-0.745c-0.73,0.622-1.427,1.217-2.268,1.934c-0.051-0.568-0.083-0.917-0.121-1.345
		c-0.434,0.127-0.833,0.244-1.26,0.371c-0.118-0.433-0.222-0.819-0.323-1.195c-1.494-0.059-1.494-0.059-1.888-1.329
		c-0.216,0.349-0.398,0.643-0.61,0.983c-0.356-0.086-0.709-0.168-1.091-0.261c-0.217,0.398-0.424,0.773-0.709,1.294
		c-0.345-0.806-0.639-1.488-0.998-2.324c-0.248,0.475-0.412,0.786-0.731,1.394c-0.094-1.001-0.162-1.722-0.229-2.444
		c-0.093-0.015-0.189-0.029-0.283-0.042c-0.17,0.472-0.34,0.943-0.512,1.417c-1.099-0.476-1.354-0.998-0.979-2.179
		c0.45-1.419,0.965-2.815,1.44-4.225c0.107-0.32,0.174-0.653,0.259-0.979c-0.141-0.044-0.28-0.09-0.42-0.135
		c-0.775,2.276-1.55,4.551-2.379,6.984c-0.783-1.326-0.624-2.473-0.072-3.616c1.033-2.132,2.09-4.253,3.1-6.396
		c0.24-0.51,0.334-1.088,0.495-1.636c-0.124-0.056-0.248-0.109-0.371-0.165c-0.535,0.877-1.165,1.711-1.582,2.641
		c-0.746,1.665-1.312,3.413-2.055,5.079c-0.501,1.123-1.179,2.168-1.873,3.417c-0.414-0.646-0.682-1.061-0.992-1.546
		c-0.142,0.195-0.259,0.356-0.403,0.555c-0.091-0.128-0.159-0.197-0.194-0.28c-0.623-1.438-0.413-2.855,0.167-4.238
		c0.813-1.933,1.67-3.849,2.494-5.778c0.133-0.315,0.19-0.663,0.122-1.054c-3.006,2.113-3.083,5.478-3.627,8.604
		c-1.556,0.179-4.117-1.273-4.619-2.645c-0.124-0.334-0.045-0.792,0.065-1.154c1.083-3.534,2.959-6.67,4.934-9.755
		c0.621-0.97,1.259-1.929,1.857-2.912c0.236-0.387,0.384-0.828,0.571-1.246c-0.068-0.067-0.136-0.133-0.204-0.2
		c-0.36,0.255-0.821,0.437-1.059,0.776c-2.078,2.965-4.262,5.876-5.576,9.296c-0.41,1.068-0.631,2.207-1,3.294
		c-0.195,0.575-0.523,1.104-0.79,1.655c-0.116-0.027-0.23-0.054-0.346-0.08c-0.057-0.904-0.114-1.806-0.191-3.008
		c-0.376,0.621-0.583,0.958-0.885,1.455c-0.576-1.766-1.512-3.25-0.532-5.153c1.014-1.968,1.729-4.09,2.478-6.185
		c-1.933,2.147-2.818,4.77-3.424,7.522c-1.251-0.724-1.497-1.393-1.231-2.751c0.239-1.224,0.373-2.471,0.493-3.715
		c0.02-0.219-0.26-0.465-0.401-0.701c-0.148,0.227-0.389,0.437-0.429,0.68c-0.18,1.103-0.298,2.214-0.449,3.321
		c-0.047,0.342-0.135,0.68-0.203,1.02c-0.131-0.02-0.261-0.039-0.391-0.059c0.139-0.878,0.278-1.756,0.417-2.636
		c-0.057-0.046-0.115-0.091-0.172-0.137c-0.184,0.307-0.368,0.614-0.53,0.882c-1.416-0.823-1.97-1.899-1.554-3.301
		c0.557-1.878,1.268-3.71,1.91-5.563c0.106-0.305,0.194-0.617,0.341-1.094c-2.726,1.233-2.604,3.876-3.383,6.003
		c-0.099,0.002-0.2,0.002-0.299,0.004c-0.073-0.553-0.145-1.106-0.227-1.747c-0.229,0.136-0.434,0.26-0.725,0.432
		c-0.262-1.501,0.05-2.836,0.691-4.069c1.152-2.215,2.25-4.48,3.637-6.546c1.021-1.522,2.396-2.834,3.745-4.102
		c1.126-1.061,3.875-0.884,4.971,0.226c0.967,0.979,2.126,1.466,3.416,1.873c1.995,0.63,3.867,1.615,5.323,3.132
		c0.428,0.446,0.489,1.448,0.39,2.147C27.992,39.389,27.548,40.393,27.148,41.679z M10.88,40.624
		c0.826-1.12,1.648-2.239,2.472-3.358C11.732,37.624,10.783,38.934,10.88,40.624z M27.074,42.386
		c-0.054-0.118-0.11-0.236-0.163-0.355c-0.456,0.178-1.067,0.237-1.322,0.569c-0.246,0.321-0.12,0.924-0.16,1.402
		c0.09,0.016,0.179,0.031,0.267,0.048C26.157,43.495,26.615,42.941,27.074,42.386z"/>
	<path fill="#C9606C" d="M7.939,20.961c0.196,0.274,0.344,0.477,0.493,0.684c0.075-0.067,0.151-0.101,0.16-0.148
		c0.178-0.853,0.024-1.766,0.94-2.426c0.367-0.264,0.318-1.105,0.525-1.962c0.441,1.771,0.817,3.281,1.192,4.788
		c0.1-0.005,0.2-0.01,0.3-0.016c0-1.019,0.071-2.044-0.022-3.055c-0.076-0.801-0.349-1.583-0.539-2.373
		c-0.297-1.239,0.076-2.169,1.143-2.821c0.769-0.47,1.542-0.935,2.402-1.455c0.152,0.842,0.28,1.553,0.408,2.264
		c0.078-0.001,0.158-0.004,0.236-0.006c0-0.786,0-1.572,0-2.358c0.146-0.023,0.292-0.047,0.436-0.071
		c0.223,0.944,0.574,1.878,0.637,2.832c0.097,1.449-0.072,2.915-0.002,4.369c0.053,1.118,0.3,2.226,0.656,3.32
		c0.708-1.812,0.523-3.63,0.308-5.451c-0.212-1.811-0.42-3.621-0.447-5.477c0.129,0.211,0.258,0.422,0.522,0.85
		c0.076-0.938,0.13-1.625,0.185-2.311c0.109-0.024,0.219-0.049,0.329-0.073c0.169,0.532,0.374,1.056,0.498,1.599
		c0.122,0.533,0.16,1.085,0.236,1.628c0.091-0.006,0.183-0.013,0.273-0.02c0-1.369,0-2.738,0-4.108
		c0.116-0.023,0.23-0.048,0.346-0.07c0.229,0.753,0.46,1.506,0.69,2.261c0.073-0.004,0.145-0.009,0.218-0.015
		c-0.058-0.928-0.118-1.856-0.181-2.86c0.239,0.097,0.432,0.175,0.704,0.283c0-0.425,0-0.782,0-1.14
		c0.048-0.013,0.097-0.025,0.145-0.036c0.186,0.416,0.371,0.831,0.679,1.527c0.167-0.352,0.277-0.585,0.434-0.913
		c0.101,0.25,0.161,0.332,0.164,0.417c0.071,1.961,0.089,3.925,0.215,5.882c0.136,2.121,0.351,4.237,0.579,6.35
		c0.049,0.451,0.299,0.88,0.556,1.307c0.363-1.394,0.809-2.765-0.009-4.163c-0.175-0.298-0.333-0.73-0.252-1.036
		c0.712-2.725,0.284-5.374-0.415-8.023c-0.294-1.114-0.43-2.222,0.866-3.097c0.116,0.906,0.221,1.732,0.326,2.559
		c0.097,0.002,0.194,0.005,0.292,0.008c0.082-0.909,0.164-1.819,0.246-2.728c0.124,0.004,0.245,0.011,0.367,0.017
		c0.194,2.473,0.387,4.947,0.582,7.42c0.095-0.006,0.191-0.011,0.286-0.017c0-2.705,0-5.41,0-8.115
		c0.096-0.004,0.192-0.009,0.287-0.013c0.057,0.798,0.114,1.596,0.169,2.394c0.099,0.013,0.196,0.025,0.295,0.037
		c0.056-0.482,0.19-0.97,0.157-1.447c-0.105-1.518,0.335-2.14,1.792-2.436c0.42-0.085,0.83-0.23,1.247-0.348
		c0.118,0.463,0.229,0.904,0.398,1.571c0.232-0.865,0.396-1.482,0.569-2.094c0.013-0.044,0.106-0.064,0.309-0.177
		c0,0.701,0,1.327,0,1.955c0.091,0.013,0.183,0.024,0.273,0.037c0.242-0.777,0.482-1.554,0.737-2.374
		c1.88,0.577,0.875,2.309,1.483,3.39c0.069-0.997,0.139-1.994,0.225-3.238c0.262,0.445,0.41,0.696,0.633,1.077
		c0.307-0.785,0.581-1.481,0.852-2.177c0.069,0.012,0.138,0.024,0.207,0.036c-0.118,1.005-0.231,2.011-0.352,3.017
		c-0.028,0.235-0.129,0.477-0.096,0.7c0.033,0.218,0.193,0.416,0.3,0.622c0.111-0.175,0.288-0.341,0.319-0.531
		c0.173-1.015,0.309-2.036,0.456-3.057c0.092-0.011,0.184-0.022,0.276-0.035c0.105,0.386,0.212,0.771,0.344,1.254
		c0.205-0.397,0.377-0.73,0.591-1.145c0.913,0.452,1.805,0.847,2.636,1.346c0.177,0.106,0.257,0.65,0.155,0.899
		c-0.614,1.503-1.351,2.957-1.939,4.468c-0.93,2.389-1.786,4.806-2.648,7.221c-0.123,0.341-0.123,0.733-0.142,1.104
		c-0.035,0.663-0.022,0.663,0.835,0.851c0.075-5.128,3.188-9.199,4.917-13.806c0,0.487,0.074,0.989-0.021,1.457
		c-0.104,0.522-0.381,1.008-0.551,1.521c-0.16,0.483-0.278,0.979-0.415,1.47c0.087,0.03,0.171,0.059,0.258,0.088
		c0.248-0.575,0.568-1.131,0.729-1.73c0.287-1.055,0.978-1.326,2.004-1.216c-0.084,0.344-0.161,0.657-0.253,1.033
		c0.358-0.053,0.637-0.096,0.964-0.145c0.132,0.892,0.254,1.72,0.404,2.737c1.261-0.178,2.486-0.347,3.707-0.526
		c0.815-0.119,1.557-0.344,2.448,0.076c0.54,0.257,1.41-0.189,2.228-0.337c-0.017,0.359-0.029,0.667-0.054,1.223
		c0.507-0.669,0.87-1.146,1.308-1.726c0.284,0.532,0.528,0.992,0.822,1.541c0.955-0.799,1.283,0.142,1.854,0.659
		c0.191-0.133,0.389-0.272,0.641-0.45c0.972,1.175,3.245,0.387,3.678,2.319c0.714,0.106,1.458,0.087,2.089,0.344
		c0.656,0.266,1.26,0.77,0.788,1.663c1.841,0.446,1.841,0.446,2.212,3.376c0.27,0,0.551,0,0.531,0
		c0.832,1.559,1.638,2.908,2.28,4.329c0.413,0.912,0.69,1.917,0.825,2.909c0.059,0.444-0.302,1.013-0.606,1.43
		c-1.052,1.453-2.169,2.858-3.244,4.294c-0.238,0.319-0.405,0.694-0.664,1.149c1.19,0.005,1.897-0.584,2.412-1.411
		c0.484-0.774,0.855-1.616,1.312-2.406c0.208-0.36,0.508-0.667,0.929-1.207c-0.441,4.751-3.067,7.759-6.573,10.208
		c0.826,0.427,1.689,0.321,2.579-0.479c0.929-0.836,1.742-1.8,2.622-2.69c0.231-0.234,0.523-0.407,0.919-0.56
		c-0.679,1.171,0.38,1.636,0.762,2.424c0.445-0.331,0.844-0.626,1.336-0.991c-0.134,1.374-1.193,2.433-1.16,3.734
		c0.116,0.042,0.23,0.083,0.348,0.125c0.374-0.567,0.75-1.133,1.124-1.699c-0.745,2.45-2.605,3.751-4.828,4.643
		c-0.205,0.082-0.575-0.104-0.805-0.258c-0.62-0.413-1.212-0.868-1.803-1.322c-0.457-0.349-1.162-0.594-0.535-1.566
		c-1.141,1.013-1.86,0.208-2.638-0.262c-1.388-0.838-2.852-1.575-4.132-2.553c-0.651-0.498-0.976-1.424-1.489-2.222
		c-0.48,0.336-1.137,0.795-1.816,1.271c-1.373-1.088-2.697-2.138-4.137-3.281c2.314-4.199,4.611-8.405,5.485-13.212
		c-0.165,0.307-0.336,0.611-0.492,0.922c-1.636,3.231-3.27,6.464-4.898,9.7c-0.352,0.7-0.749,1.273-1.671,1.236
		c-0.259-0.01-0.53,0.252-0.792,0.395c-0.382,0.21-0.738,0.508-1.147,0.623c-1.316,0.372-2.168-0.381-1.988-1.714
		c0.377-2.785,0.766-5.569,1.144-8.355c0.041-0.297,0.042-0.6-0.037-0.927c-1.346,2.189-0.25,5.216-2.503,7.1
		c0.272,0.333,0.497,0.606,0.831,1.016c-0.5-0.034-0.832-0.056-1.408-0.095c0.485,0.389,0.783,0.63,1.084,0.873
		c-1.565,1.427-1.727,1.456-3.243,0.722c-0.24-3.975,0.924-7.625,1.981-11.297c0.146-0.506,0.242-1.026,0.361-1.541
		c-0.106-0.036-0.211-0.07-0.317-0.106c-1.67,4.209-3.338,8.416-5.099,12.848c-0.769-0.456-1.638-0.73-2.144-1.316
		c-1.349-1.559-2.455-3.264-1.454-5.501c0.117-0.261,0.033-0.657-0.058-0.959c-0.593-1.936-0.625-3.881-0.029-5.805
		c0.448-1.449,0.326-2.864,0.006-4.496c-0.869,1.528-1.326,3.031-1.36,4.565c-0.071,3.28,0.031,6.563,0.074,9.844
		c0.008,0.637,0.069,1.272,0.111,1.989c-0.612,0.048-1.141,0.088-1.728,0.135c-0.051,0.312-0.099,0.601-0.174,1.055
		c-0.748-0.591-1.436-1.136-2.126-1.681c-0.104,0.046-0.208,0.091-0.313,0.137c0.155,0.848,0.309,1.696,0.49,2.697
		c-1.019-0.511-1.912-0.958-2.859-1.432c0.294-0.636,0.556-1.202,0.893-1.93c-0.518,0.035-0.896,0.061-1.314,0.088
		c-0.039,0.433-0.072,0.795-0.114,1.255c-1.702-0.012-1.7-1.635-2.543-2.479c0.313-0.243,0.572-0.443,0.897-0.695
		c-0.33-0.246-0.617-0.46-1.139-0.85c0,1.312,0,2.39,0,3.51c-1.983,0.572-2.268-1.554-3.566-2.312
		c-0.563,1.577-1.681,0.899-2.713,0.737c-1-0.158-2.008-0.276-3.017-0.356C9.941,25.268,8.156,23.531,7.939,20.961z M42.76,7.409
		c-0.126-0.033-0.252-0.066-0.377-0.1c-1.336,1.988-2.258,4.769-1.78,5.951C41.371,11.178,42.065,9.294,42.76,7.409z"/>
	<path fill="#C9606C" d="M58.861,64.665c-0.267,0.38-0.535,0.761-0.802,1.142c-0.105-0.022-0.209-0.044-0.314-0.067
		c0.104-0.64,0.105-1.322,0.33-1.918c1.299-3.443,1.949-6.972,1.58-10.655c-0.075-0.74-0.241-1.472-0.309-2.211
		c-0.068-0.739-0.151-1.494-0.071-2.223c0.094-0.85,0.518-1.437,1.554-1.294c2.348,0.325,4.707,0.559,7.043,0.946
		c0.437,0.072,1.024,0.62,1.137,1.054c1.004,3.896,0.172,7.595-1.553,11.101c-0.424,0.864-1.396,1.457-2.263,2.074
		c0.032-3.79,0.812-7.481-0.543-11.136c-0.047,0.608-0.073,1.218-0.143,1.823c-0.266,2.282-0.403,4.591-0.866,6.832
		c-0.364,1.758-1.14,3.444-2.915,4.316c-0.513,0.251-1.122,0.299-1.688,0.44C58.978,64.813,58.919,64.74,58.861,64.665z"/>
	<path fill="#C9606C" d="M2.857,32.278c-1.157-1.333-1.132-2.136,0.085-3.333c0.192-0.19,0.452-0.35,0.561-0.581
		c0.86-1.804,2.457-2.031,4.185-2.005c0.737,0.012,1.473,0.001,2.283,0.001c-0.072,0.417-0.126,0.736-0.195,1.136
		c1.531,0.584,3.039,1.16,4.729,1.806c-0.352,0.476-0.587,0.974-0.973,1.286c-3.492,2.833-6.198,6.227-7.715,10.505
		c-0.055,0.157-0.141,0.307-0.236,0.444c-0.053,0.075-0.155,0.115-0.4,0.289c-1.018-1.523-2.086-2.994-2.986-4.56
		c-0.212-0.368-0.024-1.175,0.261-1.582c0.987-1.407,2.096-2.725,3.389-4.369C4.694,31.688,3.771,31.983,2.857,32.278z"/>
	<path fill="#C9606C" d="M42.76,7.409c-0.695,1.885-1.389,3.769-2.157,5.852c-0.478-1.182,0.442-3.963,1.78-5.951
		C42.508,7.343,42.633,7.376,42.76,7.409z"/>
</g>
<g>
	<path fill="#C9606C" d="M171.41,41.679c0.655-0.537,1.086-0.889,1.591-1.301c0.752,1.02,1.468,1.994,2.234,3.032
		c0.264-0.093,0.526-0.186,0.818-0.289c0.755,1.147,1.045,2.393,0.887,3.694c-0.156,1.267-0.467,2.513-0.759,4.015
		c0.3-0.365,0.471-0.54,0.603-0.74c0.632-0.962,1.322-1.896,1.865-2.906c0.764-1.418,1.529-2.128,3.447-1.739
		c1.31,0.265,2.861-0.73,4.32-1.107c0.866-0.225,1.763-0.498,2.643-0.485c2.167,0.029,4.333,0.185,6.494,0.349
		c0.629,0.048,1.262,0.245,1.86,0.461c1.228,0.445,2.453,0.912,3.637,1.459c0.342,0.158,0.653,0.573,0.801,0.942
		c1.856,4.658,1.589,9.341,0.063,14.015c-0.669,2.049-1.682,3.92-3.215,5.468c-0.392,0.397-0.844,0.737-1.429,0.967
		c1.507-2.631,3.012-5.26,4.518-7.892c-0.164-0.132-0.328-0.267-0.49-0.399c-0.125,0.27-0.214,0.566-0.385,0.804
		c-1.121,1.57-2.312,3.09-3.38,4.695c-1.485,2.227-3.367,3.932-5.898,4.974c-0.124-0.417-0.227-0.757-0.349-1.168
		c-0.235,0.078-0.476,0.082-0.58,0.203c-0.886,1.056-2.069,1.083-3.323,1.159c-1.074,0.064-2.129,0.461-3.281,0.731
		c-0.073-0.125-0.221-0.38-0.432-0.745c-0.73,0.622-1.427,1.217-2.268,1.934c-0.051-0.568-0.083-0.917-0.121-1.345
		c-0.434,0.127-0.833,0.244-1.26,0.371c-0.118-0.433-0.222-0.819-0.323-1.195c-1.494-0.059-1.494-0.059-1.888-1.329
		c-0.216,0.349-0.398,0.643-0.61,0.983c-0.356-0.086-0.709-0.168-1.091-0.261c-0.217,0.398-0.424,0.773-0.709,1.294
		c-0.345-0.806-0.639-1.488-0.998-2.324c-0.248,0.475-0.412,0.786-0.731,1.394c-0.094-1.001-0.162-1.722-0.229-2.444
		c-0.093-0.015-0.189-0.029-0.283-0.042c-0.17,0.472-0.34,0.943-0.512,1.417c-1.099-0.476-1.354-0.998-0.979-2.179
		c0.45-1.419,0.965-2.815,1.44-4.225c0.107-0.32,0.174-0.653,0.259-0.979c-0.141-0.044-0.28-0.09-0.42-0.135
		c-0.775,2.276-1.55,4.551-2.379,6.984c-0.783-1.326-0.624-2.473-0.072-3.616c1.033-2.132,2.09-4.253,3.1-6.396
		c0.24-0.51,0.334-1.088,0.495-1.636c-0.124-0.056-0.248-0.109-0.371-0.165c-0.535,0.877-1.165,1.711-1.582,2.641
		c-0.746,1.665-1.312,3.413-2.055,5.079c-0.501,1.123-1.179,2.168-1.873,3.417c-0.414-0.646-0.682-1.061-0.992-1.546
		c-0.142,0.195-0.259,0.356-0.403,0.555c-0.091-0.128-0.159-0.197-0.194-0.28c-0.623-1.438-0.413-2.855,0.167-4.238
		c0.813-1.933,1.67-3.849,2.494-5.778c0.133-0.315,0.19-0.663,0.122-1.054c-3.006,2.113-3.083,5.478-3.627,8.604
		c-1.556,0.179-4.117-1.273-4.619-2.645c-0.124-0.334-0.045-0.792,0.065-1.154c1.083-3.534,2.959-6.67,4.934-9.755
		c0.621-0.97,1.259-1.929,1.857-2.912c0.236-0.387,0.384-0.828,0.571-1.246c-0.068-0.067-0.136-0.133-0.204-0.2
		c-0.36,0.255-0.821,0.437-1.059,0.776c-2.078,2.965-4.262,5.876-5.576,9.296c-0.41,1.068-0.631,2.207-1,3.294
		c-0.195,0.575-0.523,1.104-0.79,1.655c-0.116-0.027-0.23-0.054-0.346-0.08c-0.057-0.904-0.114-1.806-0.191-3.008
		c-0.376,0.621-0.583,0.958-0.885,1.455c-0.576-1.766-1.512-3.25-0.532-5.153c1.014-1.968,1.729-4.09,2.478-6.185
		c-1.933,2.147-2.818,4.77-3.424,7.522c-1.251-0.724-1.497-1.393-1.231-2.751c0.239-1.224,0.373-2.471,0.493-3.715
		c0.02-0.219-0.26-0.465-0.401-0.701c-0.148,0.227-0.389,0.437-0.429,0.68c-0.18,1.103-0.298,2.214-0.449,3.321
		c-0.047,0.342-0.135,0.68-0.203,1.02c-0.131-0.02-0.261-0.039-0.391-0.059c0.139-0.878,0.278-1.756,0.417-2.636
		c-0.057-0.046-0.115-0.091-0.172-0.137c-0.184,0.307-0.368,0.614-0.53,0.882c-1.416-0.823-1.97-1.899-1.554-3.301
		c0.557-1.878,1.268-3.71,1.91-5.563c0.106-0.305,0.194-0.617,0.341-1.094c-2.726,1.233-2.604,3.876-3.383,6.003
		c-0.099,0.002-0.2,0.002-0.299,0.004c-0.073-0.553-0.145-1.106-0.227-1.747c-0.229,0.136-0.434,0.26-0.725,0.432
		c-0.262-1.501,0.05-2.836,0.691-4.069c1.152-2.215,2.25-4.48,3.637-6.546c1.021-1.522,2.396-2.834,3.745-4.102
		c1.126-1.061,3.875-0.884,4.971,0.226c0.967,0.979,2.126,1.466,3.416,1.873c1.995,0.63,3.867,1.615,5.323,3.132
		c0.428,0.446,0.489,1.448,0.39,2.147C172.254,39.389,171.811,40.393,171.41,41.679z M155.142,40.624
		c0.826-1.12,1.648-2.239,2.472-3.358C155.995,37.624,155.045,38.934,155.142,40.624z M171.336,42.386
		c-0.054-0.118-0.11-0.236-0.163-0.355c-0.456,0.178-1.067,0.237-1.322,0.569c-0.246,0.321-0.12,0.924-0.16,1.402
		c0.09,0.016,0.179,0.031,0.267,0.048C170.419,43.495,170.877,42.941,171.336,42.386z"/>
	<path fill="#C9606C" d="M152.202,20.961c0.196,0.274,0.344,0.477,0.493,0.684c0.075-0.067,0.151-0.101,0.16-0.148
		c0.178-0.853,0.024-1.766,0.94-2.426c0.367-0.264,0.318-1.105,0.525-1.962c0.441,1.771,0.817,3.281,1.192,4.788
		c0.1-0.005,0.2-0.01,0.3-0.016c0-1.019,0.071-2.044-0.022-3.055c-0.076-0.801-0.349-1.583-0.539-2.373
		c-0.297-1.239,0.076-2.169,1.143-2.821c0.769-0.47,1.542-0.935,2.402-1.455c0.152,0.842,0.28,1.553,0.408,2.264
		c0.078-0.001,0.158-0.004,0.236-0.006c0-0.786,0-1.572,0-2.358c0.146-0.023,0.292-0.047,0.436-0.071
		c0.223,0.944,0.574,1.878,0.637,2.832c0.097,1.449-0.072,2.915-0.002,4.369c0.053,1.118,0.3,2.226,0.656,3.32
		c0.708-1.812,0.523-3.63,0.308-5.451c-0.212-1.811-0.42-3.621-0.447-5.477c0.129,0.211,0.258,0.422,0.522,0.85
		c0.076-0.938,0.13-1.625,0.185-2.311c0.109-0.024,0.219-0.049,0.329-0.073c0.169,0.532,0.374,1.056,0.498,1.599
		c0.122,0.533,0.16,1.085,0.236,1.628c0.091-0.006,0.183-0.013,0.273-0.02c0-1.369,0-2.738,0-4.108
		c0.116-0.023,0.23-0.048,0.346-0.07c0.229,0.753,0.46,1.506,0.69,2.261c0.073-0.004,0.145-0.009,0.218-0.015
		c-0.058-0.928-0.118-1.856-0.181-2.86c0.239,0.097,0.432,0.175,0.704,0.283c0-0.425,0-0.782,0-1.14
		c0.048-0.013,0.097-0.025,0.145-0.036c0.186,0.416,0.371,0.831,0.679,1.527c0.167-0.352,0.277-0.585,0.434-0.913
		c0.101,0.25,0.161,0.332,0.164,0.417c0.071,1.961,0.089,3.925,0.215,5.882c0.136,2.121,0.351,4.237,0.579,6.35
		c0.049,0.451,0.299,0.88,0.556,1.307c0.363-1.394,0.809-2.765-0.009-4.163c-0.175-0.298-0.333-0.73-0.252-1.036
		c0.712-2.725,0.284-5.374-0.415-8.023c-0.294-1.114-0.43-2.222,0.866-3.097c0.116,0.906,0.221,1.732,0.326,2.559
		c0.097,0.002,0.194,0.005,0.292,0.008c0.082-0.909,0.164-1.819,0.246-2.728c0.124,0.004,0.245,0.011,0.367,0.017
		c0.194,2.473,0.387,4.947,0.582,7.42c0.095-0.006,0.191-0.011,0.286-0.017c0-2.705,0-5.41,0-8.115
		c0.096-0.004,0.192-0.009,0.287-0.013c0.057,0.798,0.114,1.596,0.169,2.394c0.099,0.013,0.196,0.025,0.295,0.037
		c0.056-0.482,0.19-0.97,0.157-1.447c-0.105-1.518,0.335-2.14,1.792-2.436c0.42-0.085,0.83-0.23,1.247-0.348
		c0.118,0.463,0.229,0.904,0.398,1.571c0.232-0.865,0.396-1.482,0.569-2.094c0.013-0.044,0.106-0.064,0.309-0.177
		c0,0.701,0,1.327,0,1.955c0.091,0.013,0.183,0.024,0.273,0.037c0.242-0.777,0.482-1.554,0.737-2.374
		c1.88,0.577,0.875,2.309,1.483,3.39c0.069-0.997,0.139-1.994,0.225-3.238c0.262,0.445,0.41,0.696,0.633,1.077
		c0.307-0.785,0.581-1.481,0.852-2.177c0.069,0.012,0.138,0.024,0.207,0.036c-0.118,1.005-0.231,2.011-0.352,3.017
		c-0.028,0.235-0.129,0.477-0.096,0.7c0.033,0.218,0.193,0.416,0.3,0.622c0.111-0.175,0.288-0.341,0.319-0.531
		c0.173-1.015,0.309-2.036,0.456-3.057c0.092-0.011,0.184-0.022,0.276-0.035c0.105,0.386,0.212,0.771,0.344,1.254
		c0.205-0.397,0.377-0.73,0.591-1.145c0.913,0.452,1.805,0.847,2.636,1.346c0.177,0.106,0.257,0.65,0.155,0.899
		c-0.614,1.503-1.351,2.957-1.939,4.468c-0.93,2.389-1.786,4.806-2.648,7.221c-0.123,0.341-0.123,0.733-0.142,1.104
		c-0.035,0.663-0.022,0.663,0.835,0.851c0.075-5.128,3.188-9.199,4.917-13.806c0,0.487,0.074,0.989-0.021,1.457
		c-0.104,0.522-0.381,1.008-0.551,1.521c-0.16,0.483-0.278,0.979-0.415,1.47c0.087,0.03,0.171,0.059,0.258,0.088
		c0.248-0.575,0.568-1.131,0.729-1.73c0.287-1.055,0.978-1.326,2.004-1.216c-0.084,0.344-0.161,0.657-0.253,1.033
		c0.358-0.053,0.637-0.096,0.964-0.145c0.132,0.892,0.254,1.72,0.404,2.737c1.261-0.178,2.486-0.347,3.707-0.526
		c0.815-0.119,1.557-0.344,2.448,0.076c0.54,0.257,1.41-0.189,2.228-0.337c-0.017,0.359-0.029,0.667-0.054,1.223
		c0.507-0.669,0.87-1.146,1.308-1.726c0.284,0.532,0.528,0.992,0.822,1.541c0.955-0.799,1.283,0.142,1.854,0.659
		c0.191-0.133,0.389-0.272,0.641-0.45c0.972,1.175,3.245,0.387,3.678,2.319c0.714,0.106,1.458,0.087,2.089,0.344
		c0.656,0.266,1.26,0.77,0.788,1.663c1.841,0.446,1.841,0.446,2.212,3.376c0.27,0,0.551,0,0.531,0
		c0.832,1.559,1.638,2.908,2.28,4.329c0.413,0.912,0.69,1.917,0.825,2.909c0.059,0.444-0.302,1.013-0.606,1.43
		c-1.052,1.453-2.169,2.858-3.244,4.294c-0.238,0.319-0.405,0.694-0.664,1.149c1.19,0.005,1.897-0.584,2.412-1.411
		c0.484-0.774,0.855-1.616,1.312-2.406c0.208-0.36,0.508-0.667,0.929-1.207c-0.441,4.751-3.067,7.759-6.573,10.208
		c0.826,0.427,1.689,0.321,2.579-0.479c0.929-0.836,1.742-1.8,2.622-2.69c0.231-0.234,0.523-0.407,0.919-0.56
		c-0.679,1.171,0.38,1.636,0.762,2.424c0.445-0.331,0.844-0.626,1.336-0.991c-0.134,1.374-1.193,2.433-1.16,3.734
		c0.116,0.042,0.23,0.083,0.348,0.125c0.374-0.567,0.75-1.133,1.124-1.699c-0.745,2.45-2.605,3.751-4.828,4.643
		c-0.205,0.082-0.575-0.104-0.805-0.258c-0.62-0.413-1.212-0.868-1.803-1.322c-0.457-0.349-1.162-0.594-0.535-1.566
		c-1.141,1.013-1.86,0.208-2.638-0.262c-1.388-0.838-2.852-1.575-4.132-2.553c-0.651-0.498-0.976-1.424-1.489-2.222
		c-0.48,0.336-1.137,0.795-1.816,1.271c-1.373-1.088-2.697-2.138-4.137-3.281c2.314-4.199,4.611-8.405,5.485-13.212
		c-0.165,0.307-0.336,0.611-0.492,0.922c-1.636,3.231-3.27,6.464-4.898,9.7c-0.352,0.7-0.749,1.273-1.671,1.236
		c-0.259-0.01-0.53,0.252-0.792,0.395c-0.382,0.21-0.738,0.508-1.147,0.623c-1.316,0.372-2.168-0.381-1.988-1.714
		c0.377-2.785,0.766-5.569,1.144-8.355c0.041-0.297,0.042-0.6-0.037-0.927c-1.346,2.189-0.25,5.216-2.503,7.1
		c0.272,0.333,0.497,0.606,0.831,1.016c-0.5-0.034-0.832-0.056-1.408-0.095c0.485,0.389,0.783,0.63,1.084,0.873
		c-1.565,1.427-1.727,1.456-3.243,0.722c-0.24-3.975,0.924-7.625,1.981-11.297c0.146-0.506,0.242-1.026,0.361-1.541
		c-0.106-0.036-0.211-0.07-0.317-0.106c-1.67,4.209-3.338,8.416-5.099,12.848c-0.769-0.456-1.638-0.73-2.144-1.316
		c-1.349-1.559-2.455-3.264-1.454-5.501c0.117-0.261,0.033-0.657-0.058-0.959c-0.593-1.936-0.625-3.881-0.029-5.805
		c0.448-1.449,0.326-2.864,0.006-4.496c-0.869,1.528-1.326,3.031-1.36,4.565c-0.071,3.28,0.031,6.563,0.074,9.844
		c0.008,0.637,0.069,1.272,0.111,1.989c-0.612,0.048-1.141,0.088-1.728,0.135c-0.051,0.312-0.099,0.601-0.174,1.055
		c-0.748-0.591-1.436-1.136-2.126-1.681c-0.104,0.046-0.208,0.091-0.313,0.137c0.155,0.848,0.309,1.696,0.49,2.697
		c-1.019-0.511-1.912-0.958-2.859-1.432c0.294-0.636,0.556-1.202,0.893-1.93c-0.518,0.035-0.896,0.061-1.314,0.088
		c-0.039,0.433-0.072,0.795-0.114,1.255c-1.702-0.012-1.7-1.635-2.543-2.479c0.313-0.243,0.572-0.443,0.897-0.695
		c-0.33-0.246-0.617-0.46-1.139-0.85c0,1.312,0,2.39,0,3.51c-1.983,0.572-2.268-1.554-3.566-2.312
		c-0.563,1.577-1.681,0.899-2.713,0.737c-1-0.158-2.008-0.276-3.017-0.356C154.203,25.268,152.418,23.531,152.202,20.961z
		 M187.022,7.409c-0.126-0.033-0.252-0.066-0.377-0.1c-1.336,1.988-2.258,4.769-1.78,5.951
		C185.633,11.178,186.327,9.294,187.022,7.409z"/>
	<path fill="#C9606C" d="M203.123,64.665c-0.267,0.38-0.535,0.761-0.802,1.142c-0.105-0.022-0.209-0.044-0.314-0.067
		c0.104-0.64,0.105-1.322,0.33-1.918c1.299-3.443,1.949-6.972,1.58-10.655c-0.075-0.74-0.241-1.472-0.309-2.211
		c-0.068-0.739-0.151-1.494-0.071-2.223c0.094-0.85,0.518-1.437,1.554-1.294c2.348,0.325,4.707,0.559,7.043,0.946
		c0.437,0.072,1.024,0.62,1.137,1.054c1.004,3.896,0.172,7.595-1.553,11.101c-0.424,0.864-1.396,1.457-2.263,2.074
		c0.032-3.79,0.812-7.481-0.543-11.136c-0.047,0.608-0.073,1.218-0.143,1.823c-0.266,2.282-0.403,4.591-0.866,6.832
		c-0.364,1.758-1.14,3.444-2.915,4.316c-0.513,0.251-1.122,0.299-1.688,0.44C203.24,64.813,203.182,64.74,203.123,64.665z"/>
	<path fill="#C9606C" d="M147.119,32.278c-1.157-1.333-1.132-2.136,0.085-3.333c0.192-0.19,0.452-0.35,0.561-0.581
		c0.86-1.804,2.457-2.031,4.185-2.005c0.737,0.012,1.473,0.001,2.283,0.001c-0.072,0.417-0.126,0.736-0.195,1.136
		c1.531,0.584,3.039,1.16,4.729,1.806c-0.352,0.476-0.587,0.974-0.973,1.286c-3.492,2.833-6.198,6.227-7.715,10.505
		c-0.055,0.157-0.141,0.307-0.236,0.444c-0.053,0.075-0.155,0.115-0.4,0.289c-1.018-1.523-2.086-2.994-2.986-4.56
		c-0.212-0.368-0.024-1.175,0.261-1.582c0.987-1.407,2.096-2.725,3.389-4.369C148.956,31.688,148.033,31.983,147.119,32.278z"/>
	<path fill="#C9606C" d="M187.022,7.409c-0.695,1.885-1.389,3.769-2.157,5.852c-0.478-1.182,0.442-3.963,1.78-5.951
		C186.77,7.343,186.896,7.376,187.022,7.409z"/>
</g>
<g>
	<path fill="#C9606C" d="M99.286,113.991c0.655-0.537,1.086-0.889,1.591-1.301c0.752,1.02,1.468,1.994,2.234,3.032
		c0.264-0.093,0.526-0.186,0.818-0.289c0.755,1.147,1.045,2.393,0.887,3.694c-0.156,1.267-0.467,2.513-0.759,4.015
		c0.3-0.365,0.471-0.54,0.603-0.74c0.632-0.962,1.322-1.896,1.865-2.906c0.764-1.418,1.529-2.128,3.447-1.739
		c1.31,0.265,2.861-0.73,4.32-1.107c0.866-0.225,1.763-0.498,2.643-0.485c2.167,0.029,4.333,0.185,6.494,0.349
		c0.629,0.048,1.262,0.245,1.86,0.461c1.228,0.445,2.453,0.912,3.637,1.459c0.342,0.158,0.653,0.573,0.801,0.942
		c1.856,4.658,1.589,9.341,0.063,14.015c-0.669,2.049-1.682,3.92-3.215,5.468c-0.392,0.397-0.844,0.737-1.429,0.967
		c1.507-2.631,3.012-5.26,4.518-7.892c-0.164-0.132-0.328-0.267-0.49-0.399c-0.125,0.27-0.214,0.566-0.385,0.804
		c-1.121,1.57-2.312,3.09-3.38,4.695c-1.485,2.227-3.367,3.932-5.898,4.974c-0.124-0.417-0.227-0.757-0.349-1.168
		c-0.235,0.078-0.476,0.082-0.58,0.203c-0.886,1.056-2.069,1.083-3.323,1.159c-1.074,0.064-2.129,0.461-3.281,0.731
		c-0.073-0.125-0.221-0.38-0.432-0.745c-0.73,0.622-1.427,1.217-2.268,1.934c-0.051-0.568-0.083-0.917-0.121-1.345
		c-0.434,0.127-0.833,0.244-1.26,0.371c-0.118-0.433-0.222-0.819-0.323-1.195c-1.494-0.059-1.494-0.059-1.888-1.329
		c-0.216,0.349-0.398,0.643-0.61,0.983c-0.356-0.086-0.709-0.168-1.091-0.261c-0.217,0.398-0.424,0.773-0.709,1.294
		c-0.345-0.806-0.639-1.488-0.998-2.324c-0.248,0.475-0.412,0.786-0.731,1.394c-0.094-1.001-0.162-1.722-0.229-2.444
		c-0.093-0.015-0.189-0.029-0.283-0.042c-0.17,0.472-0.34,0.943-0.512,1.417c-1.099-0.476-1.354-0.998-0.979-2.179
		c0.45-1.419,0.965-2.815,1.44-4.225c0.107-0.32,0.174-0.653,0.259-0.979c-0.141-0.044-0.28-0.09-0.42-0.135
		c-0.775,2.276-1.55,4.551-2.379,6.984c-0.783-1.326-0.624-2.473-0.072-3.616c1.033-2.132,2.09-4.253,3.1-6.396
		c0.24-0.51,0.334-1.088,0.495-1.636c-0.124-0.056-0.248-0.109-0.371-0.165c-0.535,0.877-1.165,1.711-1.582,2.641
		c-0.746,1.665-1.312,3.413-2.055,5.079c-0.501,1.123-1.179,2.168-1.873,3.417c-0.414-0.646-0.682-1.061-0.992-1.546
		c-0.142,0.195-0.259,0.356-0.403,0.555c-0.091-0.128-0.159-0.197-0.194-0.28c-0.623-1.438-0.413-2.855,0.167-4.238
		c0.813-1.933,1.67-3.849,2.494-5.778c0.133-0.315,0.19-0.663,0.122-1.054c-3.006,2.113-3.083,5.478-3.627,8.604
		c-1.556,0.179-4.117-1.273-4.619-2.645c-0.124-0.334-0.045-0.792,0.065-1.154c1.083-3.534,2.959-6.67,4.934-9.755
		c0.621-0.97,1.259-1.929,1.857-2.912c0.236-0.387,0.384-0.828,0.571-1.246c-0.068-0.067-0.136-0.133-0.204-0.2
		c-0.36,0.255-0.821,0.437-1.059,0.776c-2.078,2.965-4.262,5.876-5.576,9.296c-0.41,1.068-0.631,2.207-1,3.294
		c-0.195,0.575-0.523,1.104-0.79,1.655c-0.116-0.027-0.23-0.054-0.346-0.08c-0.057-0.904-0.114-1.806-0.191-3.008
		c-0.376,0.621-0.583,0.958-0.885,1.455c-0.576-1.766-1.512-3.25-0.532-5.153c1.014-1.968,1.729-4.09,2.478-6.185
		c-1.933,2.147-2.818,4.77-3.424,7.522c-1.251-0.724-1.497-1.393-1.231-2.751c0.239-1.224,0.373-2.471,0.493-3.715
		c0.02-0.219-0.26-0.465-0.401-0.701c-0.148,0.227-0.389,0.437-0.429,0.68c-0.18,1.103-0.298,2.214-0.449,3.321
		c-0.047,0.342-0.135,0.68-0.203,1.02c-0.131-0.02-0.261-0.039-0.391-0.059c0.139-0.878,0.278-1.756,0.417-2.636
		c-0.057-0.046-0.115-0.091-0.172-0.137c-0.184,0.307-0.368,0.614-0.53,0.882c-1.416-0.823-1.97-1.899-1.554-3.301
		c0.557-1.878,1.268-3.71,1.91-5.563c0.106-0.305,0.194-0.617,0.341-1.094c-2.726,1.233-2.604,3.876-3.383,6.003
		c-0.099,0.002-0.2,0.002-0.299,0.004c-0.073-0.553-0.145-1.106-0.227-1.747c-0.229,0.136-0.434,0.26-0.725,0.432
		c-0.262-1.501,0.05-2.836,0.691-4.069c1.152-2.215,2.25-4.48,3.637-6.546c1.021-1.522,2.396-2.834,3.745-4.102
		c1.126-1.061,3.875-0.884,4.971,0.226c0.967,0.979,2.126,1.466,3.416,1.873c1.995,0.63,3.867,1.615,5.323,3.132
		c0.428,0.446,0.489,1.448,0.39,2.147C100.13,111.701,99.686,112.705,99.286,113.991z M83.018,112.936
		c0.826-1.12,1.648-2.239,2.472-3.358C83.87,109.937,82.921,111.246,83.018,112.936z M99.211,114.698
		c-0.054-0.118-0.11-0.236-0.163-0.355c-0.456,0.178-1.067,0.237-1.322,0.569c-0.246,0.321-0.12,0.924-0.16,1.402
		c0.09,0.016,0.179,0.031,0.267,0.048C98.294,115.808,98.752,115.254,99.211,114.698z"/>
	<path fill="#C9606C" d="M80.077,93.274c0.196,0.274,0.344,0.477,0.493,0.684c0.075-0.067,0.151-0.101,0.16-0.148
		c0.178-0.853,0.024-1.766,0.94-2.426c0.367-0.264,0.318-1.105,0.525-1.962c0.441,1.771,0.817,3.281,1.192,4.788
		c0.1-0.005,0.2-0.01,0.3-0.016c0-1.019,0.071-2.044-0.022-3.055c-0.076-0.801-0.349-1.583-0.539-2.373
		c-0.297-1.239,0.076-2.169,1.143-2.821c0.769-0.47,1.542-0.935,2.402-1.455c0.152,0.842,0.28,1.553,0.408,2.264
		c0.078-0.001,0.158-0.004,0.236-0.006c0-0.786,0-1.572,0-2.358c0.146-0.023,0.292-0.047,0.436-0.071
		c0.223,0.944,0.574,1.878,0.637,2.832c0.097,1.449-0.072,2.915-0.002,4.369c0.053,1.118,0.3,2.226,0.656,3.32
		c0.708-1.812,0.523-3.63,0.308-5.451c-0.212-1.811-0.42-3.621-0.447-5.477c0.129,0.211,0.258,0.422,0.522,0.85
		c0.076-0.938,0.13-1.625,0.185-2.311c0.109-0.024,0.219-0.049,0.329-0.073c0.169,0.532,0.374,1.056,0.498,1.599
		c0.122,0.533,0.16,1.085,0.236,1.628c0.091-0.006,0.183-0.013,0.273-0.02c0-1.369,0-2.738,0-4.108
		c0.116-0.023,0.23-0.048,0.346-0.07c0.229,0.753,0.46,1.506,0.69,2.261c0.073-0.004,0.145-0.009,0.218-0.015
		c-0.058-0.928-0.118-1.856-0.181-2.86c0.239,0.097,0.432,0.175,0.704,0.283c0-0.425,0-0.782,0-1.14
		c0.048-0.013,0.097-0.025,0.145-0.036c0.186,0.416,0.371,0.831,0.679,1.527c0.167-0.352,0.277-0.585,0.434-0.913
		c0.101,0.25,0.161,0.332,0.164,0.417c0.071,1.961,0.089,3.925,0.215,5.882c0.136,2.121,0.351,4.237,0.579,6.35
		c0.049,0.451,0.299,0.88,0.556,1.307c0.363-1.394,0.809-2.765-0.009-4.163c-0.175-0.298-0.333-0.73-0.252-1.036
		c0.712-2.725,0.284-5.374-0.415-8.023c-0.294-1.114-0.43-2.222,0.866-3.097c0.116,0.906,0.221,1.732,0.326,2.559
		c0.097,0.002,0.194,0.005,0.292,0.008c0.082-0.909,0.164-1.819,0.246-2.728c0.124,0.004,0.245,0.011,0.367,0.017
		c0.194,2.473,0.387,4.947,0.582,7.42c0.095-0.006,0.191-0.011,0.286-0.017c0-2.705,0-5.41,0-8.115
		c0.096-0.004,0.192-0.009,0.287-0.013c0.057,0.798,0.114,1.596,0.169,2.394c0.099,0.013,0.196,0.025,0.295,0.037
		c0.056-0.482,0.19-0.97,0.157-1.447c-0.105-1.518,0.335-2.14,1.792-2.436c0.42-0.085,0.83-0.23,1.247-0.348
		c0.118,0.463,0.229,0.904,0.398,1.571c0.232-0.865,0.396-1.482,0.569-2.094c0.013-0.044,0.106-0.064,0.309-0.177
		c0,0.701,0,1.327,0,1.955c0.091,0.013,0.183,0.024,0.273,0.037c0.242-0.777,0.482-1.554,0.737-2.374
		c1.88,0.577,0.875,2.309,1.483,3.39c0.069-0.997,0.139-1.994,0.225-3.238c0.262,0.445,0.41,0.696,0.633,1.077
		c0.307-0.785,0.581-1.481,0.852-2.177c0.069,0.012,0.138,0.024,0.207,0.036c-0.118,1.005-0.231,2.011-0.352,3.017
		c-0.028,0.235-0.129,0.477-0.096,0.7c0.033,0.218,0.193,0.416,0.3,0.622c0.111-0.175,0.288-0.341,0.319-0.531
		c0.173-1.015,0.309-2.036,0.456-3.057c0.092-0.011,0.184-0.022,0.276-0.035c0.105,0.386,0.212,0.771,0.344,1.254
		c0.205-0.397,0.377-0.73,0.591-1.145c0.913,0.452,1.805,0.847,2.636,1.346c0.177,0.106,0.257,0.65,0.155,0.899
		c-0.614,1.503-1.351,2.957-1.939,4.468c-0.93,2.389-1.786,4.806-2.648,7.221c-0.123,0.341-0.123,0.733-0.142,1.104
		c-0.035,0.663-0.022,0.663,0.835,0.851c0.075-5.128,3.188-9.199,4.917-13.806c0,0.487,0.074,0.989-0.021,1.457
		c-0.104,0.522-0.381,1.008-0.551,1.521c-0.16,0.483-0.278,0.979-0.415,1.47c0.087,0.03,0.171,0.059,0.258,0.088
		c0.248-0.575,0.568-1.131,0.729-1.73c0.287-1.055,0.978-1.326,2.004-1.216c-0.084,0.344-0.161,0.657-0.253,1.033
		c0.358-0.053,0.637-0.096,0.964-0.145c0.132,0.892,0.254,1.72,0.404,2.737c1.261-0.178,2.486-0.347,3.707-0.526
		c0.815-0.119,1.557-0.344,2.448,0.076c0.54,0.257,1.41-0.189,2.228-0.337c-0.017,0.359-0.029,0.667-0.054,1.223
		c0.507-0.669,0.87-1.146,1.308-1.726c0.284,0.532,0.528,0.992,0.822,1.541c0.955-0.799,1.283,0.142,1.854,0.659
		c0.191-0.133,0.389-0.272,0.641-0.45c0.972,1.175,3.245,0.387,3.678,2.319c0.714,0.106,1.458,0.087,2.089,0.344
		c0.656,0.266,1.26,0.77,0.788,1.663c1.841,0.446,1.841,0.446,2.212,3.376c0.27,0,0.551,0,0.531,0
		c0.832,1.559,1.638,2.908,2.28,4.329c0.413,0.912,0.69,1.917,0.825,2.909c0.059,0.444-0.302,1.013-0.606,1.43
		c-1.052,1.453-2.169,2.858-3.244,4.294c-0.238,0.319-0.405,0.694-0.664,1.149c1.19,0.005,1.897-0.584,2.412-1.411
		c0.484-0.774,0.855-1.616,1.312-2.406c0.208-0.36,0.508-0.667,0.929-1.207c-0.441,4.751-3.067,7.759-6.573,10.208
		c0.826,0.427,1.689,0.321,2.579-0.479c0.929-0.836,1.742-1.8,2.622-2.69c0.231-0.234,0.523-0.407,0.919-0.56
		c-0.679,1.171,0.38,1.636,0.762,2.424c0.445-0.331,0.844-0.626,1.336-0.991c-0.134,1.374-1.193,2.433-1.16,3.734
		c0.116,0.042,0.23,0.083,0.348,0.125c0.374-0.567,0.75-1.133,1.124-1.699c-0.745,2.45-2.605,3.751-4.828,4.643
		c-0.205,0.082-0.575-0.104-0.805-0.258c-0.62-0.413-1.212-0.868-1.803-1.322c-0.457-0.349-1.162-0.594-0.535-1.566
		c-1.141,1.013-1.86,0.208-2.638-0.262c-1.388-0.838-2.852-1.575-4.132-2.553c-0.651-0.498-0.976-1.424-1.489-2.222
		c-0.48,0.336-1.137,0.795-1.816,1.271c-1.373-1.088-2.697-2.138-4.137-3.281c2.314-4.199,4.611-8.405,5.485-13.212
		c-0.165,0.307-0.336,0.611-0.492,0.922c-1.636,3.231-3.27,6.464-4.898,9.7c-0.352,0.7-0.749,1.273-1.671,1.236
		c-0.259-0.01-0.53,0.252-0.792,0.395c-0.382,0.21-0.738,0.508-1.147,0.623c-1.316,0.372-2.168-0.381-1.988-1.714
		c0.377-2.785,0.766-5.569,1.144-8.355c0.041-0.297,0.042-0.6-0.037-0.927c-1.346,2.189-0.25,5.216-2.503,7.1
		c0.272,0.333,0.497,0.606,0.831,1.016c-0.5-0.034-0.832-0.056-1.408-0.095c0.485,0.389,0.783,0.63,1.084,0.873
		c-1.565,1.427-1.727,1.456-3.243,0.722c-0.24-3.975,0.924-7.625,1.981-11.297c0.146-0.506,0.242-1.026,0.361-1.541
		c-0.106-0.036-0.211-0.07-0.317-0.106c-1.67,4.209-3.338,8.416-5.099,12.848c-0.769-0.456-1.638-0.73-2.144-1.316
		c-1.349-1.559-2.455-3.264-1.454-5.501c0.117-0.261,0.033-0.657-0.058-0.959c-0.593-1.936-0.625-3.881-0.029-5.805
		c0.448-1.449,0.326-2.864,0.006-4.496c-0.869,1.528-1.326,3.031-1.36,4.565c-0.071,3.28,0.031,6.563,0.074,9.844
		c0.008,0.637,0.069,1.272,0.111,1.989c-0.612,0.048-1.141,0.088-1.728,0.135c-0.051,0.312-0.099,0.601-0.174,1.055
		c-0.748-0.591-1.436-1.136-2.126-1.681c-0.104,0.046-0.208,0.091-0.313,0.137c0.155,0.848,0.309,1.696,0.49,2.697
		c-1.019-0.511-1.912-0.958-2.859-1.432c0.294-0.636,0.556-1.202,0.893-1.93c-0.518,0.035-0.896,0.061-1.314,0.088
		c-0.039,0.433-0.072,0.795-0.114,1.255c-1.702-0.012-1.7-1.635-2.543-2.479c0.313-0.243,0.572-0.443,0.897-0.695
		c-0.33-0.246-0.617-0.46-1.139-0.85c0,1.312,0,2.39,0,3.51c-1.983,0.572-2.268-1.554-3.566-2.312
		c-0.563,1.577-1.681,0.899-2.713,0.737c-1-0.158-2.008-0.276-3.017-0.356C82.079,97.58,80.294,95.844,80.077,93.274z
		 M114.897,79.722c-0.126-0.033-0.252-0.066-0.377-0.1c-1.336,1.988-2.258,4.769-1.78,5.951
		C113.508,83.49,114.203,81.606,114.897,79.722z"/>
	<path fill="#C9606C" d="M130.999,136.978c-0.267,0.38-0.535,0.761-0.802,1.142c-0.105-0.022-0.209-0.044-0.314-0.067
		c0.104-0.64,0.105-1.322,0.33-1.918c1.299-3.443,1.949-6.972,1.58-10.655c-0.075-0.74-0.241-1.472-0.309-2.211
		c-0.068-0.739-0.151-1.494-0.071-2.223c0.094-0.85,0.518-1.437,1.554-1.294c2.348,0.325,4.707,0.559,7.043,0.946
		c0.437,0.072,1.024,0.62,1.137,1.054c1.004,3.896,0.172,7.595-1.553,11.101c-0.424,0.864-1.396,1.457-2.263,2.074
		c0.032-3.79,0.812-7.481-0.543-11.136c-0.047,0.608-0.073,1.218-0.143,1.823c-0.266,2.282-0.403,4.591-0.866,6.832
		c-0.364,1.758-1.14,3.444-2.915,4.316c-0.513,0.251-1.122,0.299-1.688,0.44C131.115,137.126,131.057,137.052,130.999,136.978z"/>
	<path fill="#C9606C" d="M74.995,104.591c-1.157-1.333-1.132-2.136,0.085-3.333c0.192-0.19,0.452-0.35,0.561-0.581
		c0.86-1.804,2.457-2.031,4.185-2.005c0.737,0.012,1.473,0.001,2.283,0.001c-0.072,0.417-0.126,0.736-0.195,1.136
		c1.531,0.584,3.039,1.16,4.729,1.806c-0.352,0.476-0.587,0.974-0.973,1.286c-3.492,2.833-6.198,6.227-7.715,10.505
		c-0.055,0.157-0.141,0.307-0.236,0.444c-0.053,0.075-0.155,0.115-0.4,0.289c-1.018-1.523-2.086-2.994-2.986-4.56
		c-0.212-0.368-0.024-1.175,0.261-1.582c0.987-1.407,2.096-2.725,3.389-4.369C76.832,104.001,75.909,104.296,74.995,104.591z"/>
	<path fill="#C9606C" d="M114.897,79.722c-0.695,1.885-1.389,3.769-2.157,5.852c-0.478-1.182,0.442-3.963,1.78-5.951
		C114.646,79.656,114.771,79.688,114.897,79.722z"/>
</g>
<g>
	<path fill="#C9606C" d="M243.548,113.991c0.655-0.537,1.086-0.889,1.591-1.301c0.752,1.02,1.468,1.994,2.234,3.032
		c0.264-0.093,0.526-0.186,0.818-0.289c0.755,1.147,1.045,2.393,0.887,3.694c-0.156,1.267-0.467,2.513-0.759,4.015
		c0.3-0.365,0.471-0.54,0.603-0.74c0.632-0.962,1.322-1.896,1.865-2.906c0.764-1.418,1.529-2.128,3.447-1.739
		c1.31,0.265,2.861-0.73,4.32-1.107c0.866-0.225,1.763-0.498,2.643-0.485c2.167,0.029,4.333,0.185,6.494,0.349
		c0.629,0.048,1.262,0.245,1.86,0.461c1.228,0.445,2.453,0.912,3.637,1.459c0.342,0.158,0.653,0.573,0.801,0.942
		c1.856,4.658,1.589,9.341,0.063,14.015c-0.669,2.049-1.682,3.92-3.215,5.468c-0.392,0.397-0.844,0.737-1.429,0.967
		c1.507-2.631,3.012-5.26,4.518-7.892c-0.164-0.132-0.328-0.267-0.49-0.399c-0.125,0.27-0.214,0.566-0.385,0.804
		c-1.121,1.57-2.312,3.09-3.38,4.695c-1.485,2.227-3.367,3.932-5.898,4.974c-0.124-0.417-0.227-0.757-0.349-1.168
		c-0.235,0.078-0.476,0.082-0.58,0.203c-0.886,1.056-2.069,1.083-3.323,1.159c-1.074,0.064-2.129,0.461-3.281,0.731
		c-0.073-0.125-0.221-0.38-0.432-0.745c-0.73,0.622-1.427,1.217-2.268,1.934c-0.051-0.568-0.083-0.917-0.121-1.345
		c-0.434,0.127-0.833,0.244-1.26,0.371c-0.118-0.433-0.222-0.819-0.323-1.195c-1.494-0.059-1.494-0.059-1.888-1.329
		c-0.216,0.349-0.398,0.643-0.61,0.983c-0.356-0.086-0.709-0.168-1.091-0.261c-0.217,0.398-0.424,0.773-0.709,1.294
		c-0.345-0.806-0.639-1.488-0.998-2.324c-0.248,0.475-0.412,0.786-0.731,1.394c-0.094-1.001-0.162-1.722-0.229-2.444
		c-0.093-0.015-0.189-0.029-0.283-0.042c-0.17,0.472-0.34,0.943-0.512,1.417c-1.099-0.476-1.354-0.998-0.979-2.179
		c0.45-1.419,0.965-2.815,1.44-4.225c0.107-0.32,0.174-0.653,0.259-0.979c-0.141-0.044-0.28-0.09-0.42-0.135
		c-0.775,2.276-1.55,4.551-2.379,6.984c-0.783-1.326-0.624-2.473-0.072-3.616c1.033-2.132,2.09-4.253,3.1-6.396
		c0.24-0.51,0.334-1.088,0.495-1.636c-0.124-0.056-0.248-0.109-0.371-0.165c-0.535,0.877-1.165,1.711-1.582,2.641
		c-0.746,1.665-1.312,3.413-2.055,5.079c-0.501,1.123-1.179,2.168-1.873,3.417c-0.414-0.646-0.682-1.061-0.992-1.546
		c-0.142,0.195-0.259,0.356-0.403,0.555c-0.091-0.128-0.159-0.197-0.194-0.28c-0.623-1.438-0.413-2.855,0.167-4.238
		c0.813-1.933,1.67-3.849,2.494-5.778c0.133-0.315,0.19-0.663,0.122-1.054c-3.006,2.113-3.083,5.478-3.627,8.604
		c-1.556,0.179-4.117-1.273-4.619-2.645c-0.124-0.334-0.045-0.792,0.065-1.154c1.083-3.534,2.959-6.67,4.934-9.755
		c0.621-0.97,1.259-1.929,1.857-2.912c0.236-0.387,0.384-0.828,0.571-1.246c-0.068-0.067-0.136-0.133-0.204-0.2
		c-0.36,0.255-0.821,0.437-1.059,0.776c-2.078,2.965-4.262,5.876-5.576,9.296c-0.41,1.068-0.631,2.207-1,3.294
		c-0.195,0.575-0.523,1.104-0.79,1.655c-0.116-0.027-0.23-0.054-0.346-0.08c-0.057-0.904-0.114-1.806-0.191-3.008
		c-0.376,0.621-0.583,0.958-0.885,1.455c-0.576-1.766-1.512-3.25-0.532-5.153c1.014-1.968,1.729-4.09,2.478-6.185
		c-1.933,2.147-2.818,4.77-3.424,7.522c-1.251-0.724-1.497-1.393-1.231-2.751c0.239-1.224,0.373-2.471,0.493-3.715
		c0.02-0.219-0.26-0.465-0.401-0.701c-0.148,0.227-0.389,0.437-0.429,0.68c-0.18,1.103-0.298,2.214-0.449,3.321
		c-0.047,0.342-0.135,0.68-0.203,1.02c-0.131-0.02-0.261-0.039-0.391-0.059c0.139-0.878,0.278-1.756,0.417-2.636
		c-0.057-0.046-0.115-0.091-0.172-0.137c-0.184,0.307-0.368,0.614-0.53,0.882c-1.416-0.823-1.97-1.899-1.554-3.301
		c0.557-1.878,1.268-3.71,1.91-5.563c0.106-0.305,0.194-0.617,0.341-1.094c-2.726,1.233-2.604,3.876-3.383,6.003
		c-0.099,0.002-0.2,0.002-0.299,0.004c-0.073-0.553-0.145-1.106-0.227-1.747c-0.229,0.136-0.434,0.26-0.725,0.432
		c-0.262-1.501,0.05-2.836,0.691-4.069c1.152-2.215,2.25-4.48,3.637-6.546c1.021-1.522,2.396-2.834,3.745-4.102
		c1.126-1.061,3.875-0.884,4.971,0.226c0.967,0.979,2.126,1.466,3.416,1.873c1.995,0.63,3.867,1.615,5.323,3.132
		c0.428,0.446,0.489,1.448,0.39,2.147C244.392,111.701,243.948,112.705,243.548,113.991z M227.28,112.936
		c0.826-1.12,1.648-2.239,2.472-3.358C228.132,109.937,227.183,111.246,227.28,112.936z M243.474,114.698
		c-0.054-0.118-0.11-0.236-0.163-0.355c-0.456,0.178-1.067,0.237-1.322,0.569c-0.246,0.321-0.12,0.924-0.16,1.402
		c0.09,0.016,0.179,0.031,0.267,0.048C242.557,115.808,243.015,115.254,243.474,114.698z"/>
	<path fill="#C9606C" d="M224.339,93.274c0.196,0.274,0.344,0.477,0.493,0.684c0.075-0.067,0.151-0.101,0.16-0.148
		c0.178-0.853,0.024-1.766,0.94-2.426c0.367-0.264,0.318-1.105,0.525-1.962c0.441,1.771,0.817,3.281,1.192,4.788
		c0.1-0.005,0.2-0.01,0.3-0.016c0-1.019,0.071-2.044-0.022-3.055c-0.076-0.801-0.349-1.583-0.539-2.373
		c-0.297-1.239,0.076-2.169,1.143-2.821c0.769-0.47,1.542-0.935,2.402-1.455c0.152,0.842,0.28,1.553,0.408,2.264
		c0.078-0.001,0.158-0.004,0.236-0.006c0-0.786,0-1.572,0-2.358c0.146-0.023,0.292-0.047,0.436-0.071
		c0.223,0.944,0.574,1.878,0.637,2.832c0.097,1.449-0.072,2.915-0.002,4.369c0.053,1.118,0.3,2.226,0.656,3.32
		c0.708-1.812,0.523-3.63,0.308-5.451c-0.212-1.811-0.42-3.621-0.447-5.477c0.129,0.211,0.258,0.422,0.522,0.85
		c0.076-0.938,0.13-1.625,0.185-2.311c0.109-0.024,0.219-0.049,0.329-0.073c0.169,0.532,0.374,1.056,0.498,1.599
		c0.122,0.533,0.16,1.085,0.236,1.628c0.091-0.006,0.183-0.013,0.273-0.02c0-1.369,0-2.738,0-4.108
		c0.116-0.023,0.23-0.048,0.346-0.07c0.229,0.753,0.46,1.506,0.69,2.261c0.073-0.004,0.145-0.009,0.218-0.015
		c-0.058-0.928-0.118-1.856-0.181-2.86c0.239,0.097,0.432,0.175,0.704,0.283c0-0.425,0-0.782,0-1.14
		c0.048-0.013,0.097-0.025,0.145-0.036c0.186,0.416,0.371,0.831,0.679,1.527c0.167-0.352,0.277-0.585,0.434-0.913
		c0.101,0.25,0.161,0.332,0.164,0.417c0.071,1.961,0.089,3.925,0.215,5.882c0.136,2.121,0.351,4.237,0.579,6.35
		c0.049,0.451,0.299,0.88,0.556,1.307c0.363-1.394,0.809-2.765-0.009-4.163c-0.175-0.298-0.333-0.73-0.252-1.036
		c0.712-2.725,0.284-5.374-0.415-8.023c-0.294-1.114-0.43-2.222,0.866-3.097c0.116,0.906,0.221,1.732,0.326,2.559
		c0.097,0.002,0.194,0.005,0.292,0.008c0.082-0.909,0.164-1.819,0.246-2.728c0.124,0.004,0.245,0.011,0.367,0.017
		c0.194,2.473,0.387,4.947,0.582,7.42c0.095-0.006,0.191-0.011,0.286-0.017c0-2.705,0-5.41,0-8.115
		c0.096-0.004,0.192-0.009,0.287-0.013c0.057,0.798,0.114,1.596,0.169,2.394c0.099,0.013,0.196,0.025,0.295,0.037
		c0.056-0.482,0.19-0.97,0.157-1.447c-0.105-1.518,0.335-2.14,1.792-2.436c0.42-0.085,0.83-0.23,1.247-0.348
		c0.118,0.463,0.229,0.904,0.398,1.571c0.232-0.865,0.396-1.482,0.569-2.094c0.013-0.044,0.106-0.064,0.309-0.177
		c0,0.701,0,1.327,0,1.955c0.091,0.013,0.183,0.024,0.273,0.037c0.242-0.777,0.482-1.554,0.737-2.374
		c1.88,0.577,0.875,2.309,1.483,3.39c0.069-0.997,0.139-1.994,0.225-3.238c0.262,0.445,0.41,0.696,0.633,1.077
		c0.307-0.785,0.581-1.481,0.852-2.177c0.069,0.012,0.138,0.024,0.207,0.036c-0.118,1.005-0.231,2.011-0.352,3.017
		c-0.028,0.235-0.129,0.477-0.096,0.7c0.033,0.218,0.193,0.416,0.3,0.622c0.111-0.175,0.288-0.341,0.319-0.531
		c0.173-1.015,0.309-2.036,0.456-3.057c0.092-0.011,0.184-0.022,0.276-0.035c0.105,0.386,0.212,0.771,0.344,1.254
		c0.205-0.397,0.377-0.73,0.591-1.145c0.913,0.452,1.805,0.847,2.636,1.346c0.177,0.106,0.257,0.65,0.155,0.899
		c-0.614,1.503-1.351,2.957-1.939,4.468c-0.93,2.389-1.786,4.806-2.648,7.221c-0.123,0.341-0.123,0.733-0.142,1.104
		c-0.035,0.663-0.022,0.663,0.835,0.851c0.075-5.128,3.188-9.199,4.917-13.806c0,0.487,0.074,0.989-0.021,1.457
		c-0.104,0.522-0.381,1.008-0.551,1.521c-0.16,0.483-0.278,0.979-0.415,1.47c0.087,0.03,0.171,0.059,0.258,0.088
		c0.248-0.575,0.568-1.131,0.729-1.73c0.287-1.055,0.978-1.326,2.004-1.216c-0.084,0.344-0.161,0.657-0.253,1.033
		c0.358-0.053,0.637-0.096,0.964-0.145c0.132,0.892,0.254,1.72,0.404,2.737c1.261-0.178,2.486-0.347,3.707-0.526
		c0.815-0.119,1.557-0.344,2.448,0.076c0.54,0.257,1.41-0.189,2.228-0.337c-0.017,0.359-0.029,0.667-0.054,1.223
		c0.507-0.669,0.87-1.146,1.308-1.726c0.284,0.532,0.528,0.992,0.822,1.541c0.955-0.799,1.283,0.142,1.854,0.659
		c0.191-0.133,0.389-0.272,0.641-0.45c0.972,1.175,3.245,0.387,3.678,2.319c0.714,0.106,1.458,0.087,2.089,0.344
		c0.656,0.266,1.26,0.77,0.788,1.663c1.841,0.446,1.841,0.446,2.212,3.376c0.27,0,0.551,0,0.531,0
		c0.832,1.559,1.638,2.908,2.28,4.329c0.413,0.912,0.69,1.917,0.825,2.909c0.059,0.444-0.302,1.013-0.606,1.43
		c-1.052,1.453-2.169,2.858-3.244,4.294c-0.238,0.319-0.405,0.694-0.664,1.149c1.19,0.005,1.897-0.584,2.412-1.411
		c0.484-0.774,0.855-1.616,1.312-2.406c0.208-0.36,0.508-0.667,0.929-1.207c-0.441,4.751-3.067,7.759-6.573,10.208
		c0.826,0.427,1.689,0.321,2.579-0.479c0.929-0.836,1.742-1.8,2.622-2.69c0.231-0.234,0.523-0.407,0.919-0.56
		c-0.679,1.171,0.38,1.636,0.762,2.424c0.445-0.331,0.844-0.626,1.336-0.991c-0.134,1.374-1.193,2.433-1.16,3.734
		c0.116,0.042,0.23,0.083,0.348,0.125c0.374-0.567,0.75-1.133,1.124-1.699c-0.745,2.45-2.605,3.751-4.828,4.643
		c-0.205,0.082-0.575-0.104-0.805-0.258c-0.62-0.413-1.212-0.868-1.803-1.322c-0.457-0.349-1.162-0.594-0.535-1.566
		c-1.141,1.013-1.86,0.208-2.638-0.262c-1.388-0.838-2.852-1.575-4.132-2.553c-0.651-0.498-0.976-1.424-1.489-2.222
		c-0.48,0.336-1.137,0.795-1.816,1.271c-1.373-1.088-2.697-2.138-4.137-3.281c2.314-4.199,4.611-8.405,5.485-13.212
		c-0.165,0.307-0.336,0.611-0.492,0.922c-1.636,3.231-3.27,6.464-4.898,9.7c-0.352,0.7-0.749,1.273-1.671,1.236
		c-0.259-0.01-0.53,0.252-0.792,0.395c-0.382,0.21-0.738,0.508-1.147,0.623c-1.316,0.372-2.168-0.381-1.988-1.714
		c0.377-2.785,0.766-5.569,1.144-8.355c0.041-0.297,0.042-0.6-0.037-0.927c-1.346,2.189-0.25,5.216-2.503,7.1
		c0.272,0.333,0.497,0.606,0.831,1.016c-0.5-0.034-0.832-0.056-1.408-0.095c0.485,0.389,0.783,0.63,1.084,0.873
		c-1.565,1.427-1.727,1.456-3.243,0.722c-0.24-3.975,0.924-7.625,1.981-11.297c0.146-0.506,0.242-1.026,0.361-1.541
		c-0.106-0.036-0.211-0.07-0.317-0.106c-1.67,4.209-3.338,8.416-5.099,12.848c-0.769-0.456-1.638-0.73-2.144-1.316
		c-1.349-1.559-2.455-3.264-1.454-5.501c0.117-0.261,0.033-0.657-0.058-0.959c-0.593-1.936-0.625-3.881-0.029-5.805
		c0.448-1.449,0.326-2.864,0.006-4.496c-0.869,1.528-1.326,3.031-1.36,4.565c-0.071,3.28,0.031,6.563,0.074,9.844
		c0.008,0.637,0.069,1.272,0.111,1.989c-0.612,0.048-1.141,0.088-1.728,0.135c-0.051,0.312-0.099,0.601-0.174,1.055
		c-0.748-0.591-1.436-1.136-2.126-1.681c-0.104,0.046-0.208,0.091-0.313,0.137c0.155,0.848,0.309,1.696,0.49,2.697
		c-1.019-0.511-1.912-0.958-2.859-1.432c0.294-0.636,0.556-1.202,0.893-1.93c-0.518,0.035-0.896,0.061-1.314,0.088
		c-0.039,0.433-0.072,0.795-0.114,1.255c-1.702-0.012-1.7-1.635-2.543-2.479c0.313-0.243,0.572-0.443,0.897-0.695
		c-0.33-0.246-0.617-0.46-1.139-0.85c0,1.312,0,2.39,0,3.51c-1.983,0.572-2.268-1.554-3.566-2.312
		c-0.563,1.577-1.681,0.899-2.713,0.737c-1-0.158-2.008-0.276-3.017-0.356C226.341,97.58,224.556,95.844,224.339,93.274z
		 M259.16,79.722c-0.126-0.033-0.252-0.066-0.377-0.1c-1.336,1.988-2.258,4.769-1.78,5.951
		C257.771,83.49,258.465,81.606,259.16,79.722z"/>
	<path fill="#C9606C" d="M275.261,136.978c-0.267,0.38-0.535,0.761-0.802,1.142c-0.105-0.022-0.209-0.044-0.314-0.067
		c0.104-0.64,0.105-1.322,0.33-1.918c1.299-3.443,1.949-6.972,1.58-10.655c-0.075-0.74-0.241-1.472-0.309-2.211
		c-0.068-0.739-0.151-1.494-0.071-2.223c0.094-0.85,0.518-1.437,1.554-1.294c2.348,0.325,4.707,0.559,7.043,0.946
		c0.437,0.072,1.024,0.62,1.137,1.054c1.004,3.896,0.172,7.595-1.553,11.101c-0.424,0.864-1.396,1.457-2.263,2.074
		c0.032-3.79,0.812-7.481-0.543-11.136c-0.047,0.608-0.073,1.218-0.143,1.823c-0.266,2.282-0.403,4.591-0.866,6.832
		c-0.364,1.758-1.14,3.444-2.915,4.316c-0.513,0.251-1.122,0.299-1.688,0.44C275.377,137.126,275.319,137.052,275.261,136.978z"/>
	<path fill="#C9606C" d="M219.257,104.591c-1.157-1.333-1.132-2.136,0.085-3.333c0.192-0.19,0.452-0.35,0.561-0.581
		c0.86-1.804,2.457-2.031,4.185-2.005c0.737,0.012,1.473,0.001,2.283,0.001c-0.072,0.417-0.126,0.736-0.195,1.136
		c1.531,0.584,3.039,1.16,4.729,1.806c-0.352,0.476-0.587,0.974-0.973,1.286c-3.492,2.833-6.198,6.227-7.715,10.505
		c-0.055,0.157-0.141,0.307-0.236,0.444c-0.053,0.075-0.155,0.115-0.4,0.289c-1.018-1.523-2.086-2.994-2.986-4.56
		c-0.212-0.368-0.024-1.175,0.261-1.582c0.987-1.407,2.096-2.725,3.389-4.369C221.094,104.001,220.171,104.296,219.257,104.591z"/>
	<path fill="#C9606C" d="M259.16,79.722c-0.695,1.885-1.389,3.769-2.157,5.852c-0.478-1.182,0.442-3.963,1.78-5.951
		C258.908,79.656,259.033,79.688,259.16,79.722z"/>
</g>
</svg>
