<?xml version="1.0" encoding="utf-8"?>
<!-- Generator: Adobe Illustrator 16.0.0, SVG Export Plug-In . SVG Version: 6.00 Build 0)  -->
<!DOCTYPE svg PUBLIC "-//W3C//DTD SVG 1.1//EN" "http://www.w3.org/Graphics/SVG/1.1/DTD/svg11.dtd">
<svg version="1.1" id="Layer_1" xmlns="http://www.w3.org/2000/svg" xmlns:xlink="http://www.w3.org/1999/xlink" x="0px" y="0px"
	 width="200.5px" height="164px" viewBox="0 0 200.5 164" enable-background="new 0 0 200.5 164" xml:space="preserve">
<path fill-rule="evenodd" clip-rule="evenodd" fill="#BF2032" d="M148.316,59.841c0.773-0.633,1.282-1.049,1.877-1.536
	c0.887,1.204,1.733,2.353,2.636,3.578c0.311-0.11,0.62-0.22,0.965-0.341c0.891,1.353,1.234,2.823,1.046,4.359
	c-0.184,1.493-0.551,2.963-0.895,4.736c0.354-0.432,0.556-0.638,0.711-0.874c0.747-1.135,1.56-2.236,2.202-3.428
	c0.901-1.674,1.803-2.511,4.066-2.052c1.545,0.313,3.376-0.86,5.097-1.306c1.022-0.265,2.08-0.587,3.117-0.572
	c2.557,0.035,5.112,0.218,7.663,0.412c0.742,0.057,1.488,0.288,2.194,0.544c1.448,0.526,2.893,1.077,4.29,1.721
	c0.405,0.187,0.772,0.677,0.945,1.112c2.191,5.495,1.876,11.021,0.075,16.534c-0.79,2.418-1.984,4.625-3.793,6.452
	c-0.463,0.469-0.996,0.869-1.686,1.141c1.777-3.104,3.554-6.207,5.33-9.311c-0.193-0.157-0.386-0.314-0.578-0.471
	c-0.148,0.318-0.253,0.668-0.454,0.949c-1.322,1.852-2.728,3.646-3.988,5.539c-1.752,2.628-3.972,4.64-6.958,5.869
	c-0.146-0.491-0.267-0.893-0.412-1.379c-0.277,0.092-0.562,0.097-0.684,0.24c-1.046,1.245-2.441,1.278-3.92,1.367
	c-1.268,0.076-2.512,0.544-3.871,0.863c-0.086-0.147-0.26-0.449-0.51-0.88c-0.861,0.734-1.684,1.436-2.676,2.282
	c-0.06-0.67-0.097-1.083-0.142-1.587c-0.512,0.15-0.982,0.288-1.487,0.437c-0.138-0.511-0.261-0.966-0.381-1.41
	c-1.762-0.069-1.762-0.069-2.227-1.567c-0.255,0.411-0.47,0.757-0.72,1.16c-0.42-0.101-0.835-0.2-1.286-0.309
	c-0.257,0.47-0.5,0.913-0.836,1.527c-0.408-0.951-0.754-1.754-1.179-2.741c-0.293,0.559-0.486,0.927-0.862,1.644
	c-0.111-1.182-0.191-2.032-0.271-2.883c-0.111-0.018-0.223-0.034-0.334-0.051c-0.201,0.557-0.402,1.113-0.604,1.673
	c-1.297-0.562-1.598-1.176-1.155-2.57c0.532-1.674,1.139-3.322,1.7-4.986c0.127-0.377,0.204-0.77,0.305-1.154
	c-0.165-0.053-0.33-0.106-0.495-0.159c-0.914,2.685-1.829,5.368-2.807,8.239c-0.924-1.564-0.736-2.917-0.084-4.265
	c1.218-2.516,2.466-5.018,3.657-7.546c0.283-0.602,0.394-1.285,0.584-1.931c-0.146-0.065-0.293-0.129-0.438-0.194
	c-0.631,1.035-1.374,2.019-1.866,3.116c-0.88,1.964-1.547,4.025-2.424,5.991c-0.592,1.326-1.392,2.559-2.21,4.033
	c-0.488-0.763-0.804-1.253-1.171-1.825c-0.167,0.23-0.305,0.42-0.475,0.654c-0.108-0.151-0.188-0.232-0.229-0.329
	c-0.734-1.697-0.487-3.369,0.197-5.001c0.959-2.281,1.97-4.541,2.941-6.817c0.158-0.372,0.225-0.782,0.145-1.243
	c-3.547,2.493-3.637,6.462-4.279,10.15c-1.836,0.211-4.858-1.502-5.45-3.12c-0.145-0.394-0.053-0.934,0.078-1.361
	c1.277-4.169,3.492-7.869,5.821-11.509c0.732-1.144,1.486-2.276,2.192-3.436c0.278-0.457,0.452-0.977,0.674-1.469
	c-0.08-0.079-0.161-0.157-0.241-0.236c-0.423,0.301-0.968,0.515-1.249,0.916c-2.452,3.498-5.028,6.933-6.578,10.967
	c-0.483,1.261-0.744,2.605-1.18,3.887c-0.23,0.678-0.617,1.303-0.933,1.952c-0.136-0.032-0.271-0.064-0.407-0.095
	c-0.067-1.066-0.136-2.131-0.226-3.549c-0.445,0.733-0.688,1.131-1.044,1.718c-0.679-2.085-1.784-3.835-0.627-6.081
	c1.196-2.321,2.039-4.825,2.923-7.296c-2.28,2.533-3.326,5.626-4.04,8.875c-1.477-0.855-1.766-1.644-1.453-3.246
	c0.282-1.445,0.44-2.917,0.581-4.384c0.024-0.258-0.306-0.549-0.472-0.826c-0.175,0.267-0.459,0.515-0.506,0.802
	c-0.212,1.301-0.351,2.613-0.53,3.918c-0.056,0.404-0.159,0.802-0.24,1.203c-0.153-0.023-0.307-0.046-0.46-0.069
	c0.164-1.036,0.328-2.073,0.492-3.109c-0.067-0.055-0.136-0.109-0.203-0.163c-0.218,0.362-0.435,0.725-0.626,1.042
	c-1.67-0.971-2.324-2.242-1.833-3.895c0.657-2.216,1.496-4.377,2.253-6.563c0.125-0.361,0.229-0.729,0.403-1.291
	c-3.216,1.455-3.071,4.573-3.991,7.083c-0.117,0.001-0.235,0.002-0.353,0.003c-0.085-0.652-0.17-1.304-0.268-2.059
	c-0.269,0.16-0.511,0.305-0.854,0.508c-0.31-1.771,0.059-3.346,0.815-4.8c1.36-2.614,2.655-5.287,4.291-7.724
	c1.205-1.796,2.828-3.344,4.418-4.84c1.329-1.251,4.572-1.042,5.865,0.267c1.142,1.154,2.509,1.729,4.03,2.209
	c2.353,0.744,4.562,1.906,6.28,3.695c0.505,0.526,0.578,1.708,0.46,2.533C149.312,57.139,148.789,58.323,148.316,59.841z
	 M129.124,58.596c0.973-1.321,1.944-2.641,2.916-3.962C130.129,55.057,129.01,56.602,129.124,58.596z M148.229,60.675
	c-0.064-0.14-0.129-0.279-0.193-0.419c-0.537,0.21-1.259,0.28-1.559,0.672c-0.289,0.378-0.142,1.09-0.188,1.655
	c0.105,0.018,0.21,0.036,0.314,0.055C147.146,61.984,147.688,61.33,148.229,60.675z"/>
<path fill-rule="evenodd" clip-rule="evenodd" fill="#BF2032" d="M125.655,35.399c0.232,0.323,0.405,0.563,0.581,0.807
	c0.088-0.079,0.178-0.119,0.189-0.175c0.21-1.006,0.028-2.083,1.109-2.862c0.433-0.312,0.375-1.304,0.62-2.315
	c0.521,2.09,0.964,3.87,1.407,5.648c0.117-0.006,0.235-0.012,0.353-0.018c0-1.202,0.084-2.412-0.026-3.604
	c-0.088-0.945-0.411-1.868-0.635-2.8c-0.35-1.462,0.09-2.558,1.348-3.328c0.908-0.555,1.82-1.103,2.835-1.717
	c0.179,0.994,0.33,1.833,0.481,2.672c0.093-0.002,0.186-0.005,0.279-0.008c0-0.927,0-1.854,0-2.781
	c0.171-0.028,0.343-0.056,0.514-0.084c0.263,1.113,0.676,2.216,0.751,3.341c0.114,1.71-0.085,3.439-0.002,5.154
	c0.062,1.319,0.354,2.626,0.773,3.917c0.836-2.137,0.617-4.283,0.364-6.431c-0.25-2.136-0.497-4.272-0.528-6.461
	c0.152,0.249,0.305,0.497,0.616,1.003c0.089-1.107,0.153-1.917,0.218-2.726c0.129-0.029,0.258-0.058,0.388-0.086
	c0.199,0.628,0.441,1.246,0.587,1.886c0.144,0.629,0.19,1.281,0.279,1.922c0.108-0.008,0.216-0.015,0.323-0.023
	c0-1.615,0-3.231,0-4.847c0.136-0.028,0.271-0.057,0.407-0.084c0.271,0.889,0.543,1.778,0.815,2.668
	c0.086-0.006,0.172-0.011,0.258-0.017c-0.069-1.095-0.139-2.19-0.214-3.375c0.283,0.114,0.51,0.206,0.83,0.334
	c0-0.502,0-0.923,0-1.345c0.057-0.015,0.114-0.029,0.171-0.043c0.219,0.491,0.437,0.981,0.801,1.802
	c0.196-0.415,0.327-0.69,0.511-1.077c0.119,0.294,0.19,0.392,0.194,0.492c0.084,2.313,0.105,4.63,0.254,6.939
	c0.16,2.502,0.414,4.999,0.683,7.492c0.058,0.532,0.354,1.039,0.657,1.541c0.428-1.644,0.954-3.261-0.012-4.91
	c-0.206-0.352-0.393-0.861-0.298-1.222c0.841-3.215,0.335-6.341-0.489-9.465c-0.347-1.314-0.507-2.622,1.022-3.654
	c0.136,1.069,0.26,2.044,0.383,3.019c0.115,0.003,0.229,0.006,0.345,0.01c0.096-1.073,0.193-2.146,0.289-3.219
	c0.146,0.006,0.289,0.013,0.434,0.02c0.229,2.918,0.457,5.837,0.686,8.755c0.112-0.007,0.225-0.013,0.337-0.02
	c0-3.191,0-6.383,0-9.574c0.113-0.005,0.226-0.01,0.339-0.015c0.066,0.942,0.133,1.883,0.2,2.825
	c0.115,0.015,0.231,0.029,0.348,0.043c0.066-0.569,0.223-1.145,0.184-1.707c-0.124-1.791,0.396-2.525,2.114-2.874
	c0.496-0.101,0.979-0.271,1.471-0.41c0.139,0.546,0.271,1.066,0.471,1.853c0.274-1.021,0.466-1.748,0.671-2.471
	c0.015-0.051,0.125-0.075,0.364-0.208c0,0.827,0,1.566,0,2.306c0.107,0.015,0.215,0.029,0.322,0.044
	c0.285-0.917,0.569-1.834,0.87-2.801c2.218,0.681,1.032,2.724,1.749,4c0.082-1.177,0.164-2.354,0.266-3.821
	c0.309,0.526,0.482,0.822,0.747,1.271c0.362-0.926,0.684-1.748,1.005-2.569c0.081,0.014,0.163,0.028,0.244,0.042
	c-0.138,1.186-0.273,2.373-0.416,3.559c-0.033,0.277-0.152,0.562-0.113,0.826c0.038,0.257,0.229,0.491,0.354,0.735
	c0.13-0.208,0.339-0.403,0.376-0.627c0.203-1.198,0.363-2.403,0.538-3.606c0.108-0.013,0.217-0.027,0.325-0.041
	c0.125,0.455,0.25,0.909,0.407,1.479c0.242-0.469,0.445-0.862,0.697-1.351c1.076,0.534,2.13,0.999,3.109,1.588
	c0.209,0.126,0.305,0.768,0.184,1.062c-0.724,1.773-1.593,3.488-2.287,5.271c-1.098,2.818-2.107,5.67-3.125,8.519
	c-0.145,0.403-0.144,0.866-0.167,1.303c-0.041,0.782-0.027,0.782,0.986,1.004c0.088-6.051,3.761-10.853,5.8-16.288
	c0,0.574,0.088,1.167-0.023,1.718c-0.124,0.616-0.45,1.189-0.65,1.794c-0.189,0.57-0.329,1.156-0.49,1.735
	c0.102,0.035,0.202,0.069,0.304,0.104c0.293-0.679,0.669-1.335,0.86-2.041c0.338-1.245,1.154-1.565,2.365-1.435
	c-0.1,0.406-0.19,0.775-0.3,1.219c0.424-0.064,0.753-0.114,1.138-0.172c0.155,1.053,0.3,2.029,0.477,3.23
	c1.488-0.211,2.932-0.41,4.373-0.621c0.962-0.14,1.837-0.406,2.887,0.09c0.637,0.302,1.665-0.224,2.629-0.398
	c-0.019,0.424-0.034,0.787-0.063,1.443c0.599-0.789,1.026-1.353,1.544-2.036c0.335,0.628,0.623,1.171,0.968,1.818
	c1.128-0.943,1.514,0.167,2.188,0.778c0.225-0.158,0.458-0.322,0.755-0.531c1.147,1.386,3.829,0.456,4.339,2.736
	c0.844,0.125,1.721,0.103,2.465,0.405c0.773,0.314,1.486,0.909,0.93,1.962c2.171,0.526,2.171,0.526,2.609,3.983
	c0.319,0,0.65,0,0.626,0c0.982,1.84,1.932,3.431,2.69,5.107c0.486,1.076,0.814,2.262,0.973,3.431
	c0.07,0.525-0.356,1.196-0.714,1.688c-1.241,1.714-2.56,3.372-3.828,5.066c-0.281,0.376-0.477,0.818-0.783,1.356
	c1.405,0.006,2.239-0.69,2.847-1.664c0.569-0.913,1.007-1.907,1.547-2.839c0.246-0.425,0.6-0.787,1.096-1.424
	c-0.521,5.606-3.618,9.155-7.755,12.043c0.975,0.504,1.993,0.378,3.043-0.565c1.096-0.986,2.055-2.123,3.093-3.174
	c0.272-0.276,0.617-0.48,1.084-0.66c-0.801,1.382,0.448,1.93,0.899,2.86c0.526-0.39,0.996-0.738,1.576-1.169
	c-0.157,1.621-1.406,2.87-1.367,4.406c0.136,0.049,0.272,0.098,0.41,0.147c0.442-0.668,0.885-1.337,1.327-2.005
	c-0.879,2.891-3.074,4.427-5.697,5.478c-0.242,0.097-0.678-0.122-0.95-0.304c-0.731-0.487-1.43-1.025-2.127-1.56
	c-0.538-0.412-1.371-0.7-0.631-1.848c-1.345,1.195-2.195,0.245-3.112-0.309c-1.638-0.988-3.364-1.858-4.875-3.012
	c-0.769-0.587-1.151-1.681-1.757-2.622c-0.567,0.397-1.342,0.938-2.142,1.499c-1.619-1.283-3.182-2.522-4.882-3.87
	c2.731-4.955,5.44-9.917,6.471-15.588c-0.193,0.362-0.395,0.721-0.58,1.088c-1.929,3.813-3.857,7.627-5.778,11.444
	c-0.415,0.825-0.884,1.502-1.972,1.458c-0.305-0.012-0.625,0.297-0.934,0.466c-0.451,0.248-0.871,0.599-1.353,0.735
	c-1.552,0.438-2.558-0.45-2.345-2.023c0.444-3.286,0.903-6.57,1.349-9.856c0.048-0.351,0.05-0.708-0.044-1.094
	c-1.588,2.583-0.295,6.153-2.953,8.376c0.321,0.393,0.585,0.716,0.98,1.199c-0.591-0.04-0.981-0.066-1.66-0.112
	c0.571,0.459,0.923,0.743,1.278,1.029c-1.846,1.684-2.036,1.718-3.826,0.853c-0.282-4.69,1.091-8.996,2.339-13.328
	c0.172-0.597,0.284-1.211,0.425-1.818c-0.125-0.042-0.249-0.083-0.373-0.125c-1.97,4.965-3.939,9.929-6.015,15.158
	c-0.908-0.538-1.934-0.861-2.531-1.553c-1.59-1.839-2.896-3.851-1.714-6.489c0.138-0.308,0.04-0.775-0.068-1.132
	c-0.7-2.284-0.736-4.579-0.034-6.849c0.528-1.709,0.383-3.379,0.007-5.304c-1.025,1.803-1.564,3.576-1.604,5.386
	c-0.085,3.869,0.036,7.742,0.087,11.614c0.01,0.751,0.082,1.501,0.131,2.346c-0.723,0.056-1.346,0.104-2.038,0.159
	c-0.061,0.368-0.117,0.709-0.205,1.245c-0.883-0.698-1.695-1.341-2.509-1.984c-0.123,0.054-0.246,0.107-0.369,0.161
	c0.182,1.001,0.364,2.002,0.578,3.182c-1.203-0.603-2.257-1.13-3.374-1.689c0.347-0.75,0.655-1.418,1.052-2.276
	c-0.61,0.041-1.056,0.071-1.549,0.104c-0.046,0.511-0.085,0.938-0.135,1.481c-2.008-0.014-2.006-1.929-3-2.925
	c0.369-0.286,0.675-0.523,1.057-0.82c-0.388-0.29-0.727-0.543-1.342-1.002c0,1.548,0,2.819,0,4.141
	c-2.34,0.674-2.676-1.834-4.207-2.727c-0.664,1.859-1.983,1.06-3.2,0.869c-1.18-0.186-2.369-0.325-3.56-0.42
	C128.015,40.48,125.91,38.431,125.655,35.399z M166.734,19.41c-0.148-0.039-0.296-0.078-0.444-0.117
	c-1.577,2.345-2.665,5.627-2.101,7.021C165.096,23.857,165.915,21.634,166.734,19.41z"/>
<path fill-rule="evenodd" clip-rule="evenodd" fill="#BF2032" d="M3.842,62.317c-0.76-4.843-1.776-10.044-3.786-14.992
	c-0.636-1.564,0.319-2.585,1.019-3.69c0.657-1.039,1.849-0.899,2.838-0.871c1.002,0.029,2.26,1.963,2.46,3.173
	c0.687,4.13,1.431,8.25,2.171,12.372c0.075,0.418,0.265,0.815,0.449,1.367c0.595-0.365,1.107-0.647,1.587-0.977
	c5.725-3.931,10.126-9.135,14.12-14.726c1.191-1.668,2.242-1.904,3.989-0.792c0.801,0.51,1.952,0.783,1.826,2.077
	c-0.054,0.553-0.138,1.213-0.465,1.614c-5.461,6.68-11.392,12.866-18.619,17.706c-0.622,0.416-0.819,1.466-1.294,2.378
	c4.333,1,8.293,1.915,12.254,2.83c0.544,0.125,1.085,0.269,1.633,0.376c0.268,0.053,0.695,0.167,0.8,0.042
	c0.967-1.152,2.074-0.492,3.094-0.236c2.437,0.612,4.864,1.267,7.264,2.004c0.901,0.277,1.826,0.702,2.536,1.301
	c0.484,0.409,0.976,1.344,0.824,1.852c-0.239,0.794-0.838,1.473-2.089,1.2c-2.767-0.603-5.585-0.971-8.383-1.43
	c-0.234-0.039-0.567-0.156-0.695-0.048c-1.726,1.458-3.605,0.345-5.38,0.267c-2.869-0.127-5.725-0.547-8.587-0.834
	c-0.306-0.031-0.618-0.004-1.089-0.004c0.788,3.427,1.554,6.756,2.358,10.253c1.178-1.03,2.244-0.45,3.402,0.107
	c0.304,3.703-0.848,6.987-3.389,9.794c-0.574,0.635-2.237,0.731-3.149,0.234c-1.524-0.831-2.082-2.24-2.252-3.865
	c-0.399-3.814-0.682-7.646-1.238-11.438c-0.28-1.908-0.939-3.787-1.636-5.599c-0.576-1.495-1.765-2.229-3.505-2.137
	c-2.493,0.132-3.102-0.453-3.018-2.957c0.043-1.283,0.199-2.718,0.823-3.78C1.294,63.904,2.563,63.323,3.842,62.317z"/>
<path fill-rule="evenodd" clip-rule="evenodd" fill="#BF2032" d="M94.155,61.819c-1.798,3.408-3.531,6.6-5.162,9.843
	c-0.509,1.012-1.117,1.67-2.27,1.811c-0.67,0.081-1.32,0.315-1.988,0.43c-2.115,0.363-3.96-0.323-4.827-2.26
	c-0.749-1.674-1.353-3.553-1.424-5.364c-0.203-5.186,0.966-10.245,1.979-15.297c0.628-3.131,1.355-6.244,2.11-9.348
	c0.122-0.501,0.59-0.94,0.957-1.356c1.418-1.609,3.031-3.08,4.237-4.833c0.855-1.242,1.797-1.53,3.112-1.436
	c2.448,0.176,3.899,1.644,4.098,4.047c0.375,4.528,0.299,9.124,1.91,13.477c0.262,0.707,0.559,1.401,0.857,2.094
	c0.313,0.725,1.062,1.326,0.484,2.285c-0.112,0.187,0.191,0.654,0.349,0.968c2.255,4.499,4.507,9,6.794,13.483
	c0.311,0.608,0.369,1.065-0.098,1.608c-0.441,0.513-0.77,1.121-1.191,1.653c-0.507,0.639-1.008,1.7-1.605,1.77
	c-1.513,0.176-3.093-0.007-4.611-0.262c-0.379-0.063-0.663-0.923-0.905-1.457c-0.103-0.225-0.011-0.554,0.039-0.828
	c0.322-1.792-0.026-3.429-0.779-5.099c-0.676-1.5-0.983-3.166-1.477-4.75C94.642,62.667,94.434,62.367,94.155,61.819z
	 M84.691,67.083c2.634-2.894,4.531-6.161,5.608-9.918c1.197-4.177-0.059-7.877-2.153-11.787
	C85.463,52.529,83.632,59.521,84.691,67.083z"/>
<path fill-rule="evenodd" clip-rule="evenodd" d="M53.006,111.647c1.835,1.047,3.41,2.071,3.587,4.077
	c0.377,4.255,0.776,8.516-1.468,12.502c-0.993,1.764-2.429,2.629-4.344,2.701c-3.514,0.133-7.033,0.145-10.548,0.256
	c-0.918,0.029-1.308-0.277-1.312-1.207c-0.011-2.917-0.103-5.834-0.09-8.75c0.037-8.475,0.11-16.948,0.166-25.422
	c0.01-1.575,0.427-2.004,2.036-2.014c2.758-0.015,5.517-0.037,8.274-0.021c4.036,0.023,6.722,2.466,6.971,6.517
	c0.149,2.428,0.113,4.877-0.003,7.309C56.184,109.516,55.059,110.84,53.006,111.647z M46.166,114.339
	c-0.114,3.327-0.236,6.661-0.322,9.996c-0.004,0.182,0.272,0.491,0.467,0.538c1.486,0.359,3.055-0.55,3.214-2.048
	c0.202-1.893,0.318-3.823,0.174-5.715C49.531,114.896,48.63,114.296,46.166,114.339z M46.238,108.501
	c1.933,0.359,2.956-0.376,3.108-2.303c0.088-1.113,0.094-2.237,0.061-3.354c-0.069-2.311-0.656-2.783-3.169-2.541
	C46.238,103.028,46.238,105.766,46.238,108.501z"/>
<path fill-rule="evenodd" clip-rule="evenodd" d="M117.414,116.69c0.122,2.281,0.225,4.267,0.336,6.251
	c0.049,0.855,0.247,1.552,1.321,1.65c1.015,0.094,1.757-0.193,2.066-1.189c0.618-1.988,0.738-4.024,0.086-6.007
	c-0.201-0.612-0.813-1.179-1.374-1.569c-1.572-1.095-3.215-2.087-4.83-3.119c-2.575-1.646-4.036-3.92-3.993-7.053
	c0.022-1.678-0.075-3.363,0.049-5.032c0.213-2.861,1.64-4.99,4.302-6.131c2.15-0.922,4.431-1.055,6.694-0.498
	c3.93,0.965,5.649,3.023,5.95,7.067c0.112,1.513,0.075,3.036,0.119,4.555c0.024,0.837-0.287,1.247-1.199,1.201
	c-1.516-0.076-3.036-0.089-4.555-0.086c-0.632,0.001-0.84-0.249-0.819-0.859c0.04-1.198,0.041-2.397,0.033-3.597
	c-0.007-0.954-0.439-1.618-1.428-1.774c-1.045-0.166-1.646,0.396-2.001,1.316c-0.896,2.327,0.146,4.929,2.353,6.051
	c1.489,0.757,2.953,1.576,4.378,2.451c2.345,1.439,3.666,3.637,3.804,6.321c0.146,2.857,0.124,5.754-0.182,8.595
	c-0.338,3.149-2.408,5.28-5.532,5.773c-1.902,0.301-3.945,0.363-5.828,0.011c-3.842-0.719-5.826-3.361-6.08-7.655
	c-0.113-1.912-0.011-3.836-0.05-5.754c-0.014-0.702,0.32-0.921,0.938-0.92C113.765,116.691,115.556,116.69,117.414,116.69z"/>
<path fill-rule="evenodd" clip-rule="evenodd" d="M98.86,108.646c1.761,0,3.434,0.047,5.103-0.019
	c0.923-0.037,1.225,0.393,1.212,1.191c-0.019,1.278-0.097,2.557-0.092,3.834c0.002,0.722-0.272,1.005-0.994,0.972
	c-1.397-0.063-2.799-0.035-4.193-0.13c-0.836-0.058-1.152,0.203-1.139,1.056c0.037,2.318,0.012,4.637,0.012,6.955
	c0,0.767,0,1.533,0,2.528c3.028,0,5.932,0,8.983,0c0,1.971,0.029,3.72-0.038,5.464c-0.009,0.222-0.529,0.607-0.812,0.607
	c-4.556,0.001-9.111-0.047-13.667-0.088c-0.817-0.008-1.112-0.493-1.112-1.245c-0.001-1.519,0.006-3.038-0.017-4.557
	c-0.15-9.832-0.293-19.663-0.479-29.494c-0.021-1.126,0.101-1.816,1.486-1.789c3.071,0.062,6.145,0.004,9.218,0.009
	c1.159,0.002,2.318,0.057,3.477,0.06c0.866,0.003,1.224,0.433,1.201,1.268c-0.032,1.194-0.119,2.394-0.047,3.583
	c0.059,0.969-0.377,1.162-1.2,1.144c-1.958-0.045-3.916-0.052-5.875-0.063c-0.312-0.002-0.625,0.05-1.025,0.084
	C98.86,102.834,98.86,105.609,98.86,108.646z"/>
<path fill-rule="evenodd" clip-rule="evenodd" fill="#BF2032" d="M51.345,22.57c2.134-0.032,4.01,2.281,3.428,4.172
	c-0.37,1.204-0.417,2.219,0.513,3.174c0.19,0.195,0.354,0.648,0.258,0.855c-0.981,2.11-0.146,4.189,0.13,6.242
	c1.207,8.941,2.511,17.869,3.78,26.802c-0.799,2.276,1.055,4.197,0.878,6.402c-0.018,0.228,0.404,0.645,0.685,0.713
	c0.971,0.237,1.423,0.863,1.778,1.746c1.352,3.358,0.151,6.378-1.193,9.363c-0.554,1.229-1.47,2.213-2.833,2.587
	c-0.427,0.117-0.967,0.113-1.374-0.045c-1.222-0.475-2.786-3.471-2.285-4.665c0.649-1.549,0.415-3.06,0.218-4.586
	c-1.646-12.79-3.249-25.586-5.021-38.359c-0.536-3.862-1.54-7.661-2.381-11.478c-0.14-0.635-0.122-1.044,0.472-1.387
	C49.404,23.525,50.096,22.321,51.345,22.57z"/>
<path fill-rule="evenodd" clip-rule="evenodd" fill="#BF2032" d="M64.294,23.528c2.072-0.033,3.907,2.269,3.328,4.178
	c-0.367,1.208-0.366,2.236,0.553,3.191c0.185,0.192,0.345,0.642,0.247,0.839c-0.86,1.728-0.28,3.462-0.041,5.171
	c1.295,9.254,2.637,18.502,3.962,27.753c-0.887,2.325,1.085,4.303,0.818,6.566c-0.023,0.197,0.368,0.496,0.623,0.664
	c0.452,0.298,1.225,0.427,1.371,0.813c0.497,1.312,1.529,2.513,1.117,4.075c-0.506,1.922-0.918,3.878-1.567,5.751
	c-0.463,1.338-1.393,2.473-2.797,2.96c-0.542,0.188-1.284,0.172-1.81-0.05c-1.071-0.452-2.609-3.391-2.166-4.421
	c0.93-2.159,0.309-4.27,0.066-6.368c-1.027-8.888-1.991-17.788-3.295-26.637c-1.07-7.258-2.596-14.449-3.881-21.677
	c-0.065-0.365,0.112-0.962,0.387-1.166C62.171,24.46,62.935,23.293,64.294,23.528z"/>
<path fill-rule="evenodd" clip-rule="evenodd" d="M88.781,100.604c-1.949,0-3.729,0-5.675,0c0,3.069,0.016,5.981-0.003,8.894
	c-0.043,6.716-0.124,13.432-0.137,20.146c-0.002,1.027-0.361,1.486-1.359,1.492c-1.627,0.01-3.257,0.078-4.878-0.018
	c-0.255-0.015-0.646-0.75-0.668-1.168c-0.096-1.795-0.1-3.596-0.098-5.395c0.009-7.636,0.02-15.271,0.07-22.906
	c0.006-0.867-0.186-1.226-1.116-1.208c-1.114,0.022-2.232-0.173-3.348-0.173c-0.85-0.001-1.159-0.413-1.153-1.164
	c0.01-1.479-0.01-2.961,0.122-4.429c0.025-0.283,0.688-0.723,1.062-0.728c4.514-0.067,9.029-0.07,13.544-0.081
	c0.719-0.002,1.444,0.102,2.156,0.038c1.104-0.098,1.517,0.363,1.491,1.437C88.751,97.017,88.781,98.692,88.781,100.604z"/>
<path fill-rule="evenodd" clip-rule="evenodd" d="M60.396,112.202c0-5.592,0.021-11.183-0.02-16.774
	c-0.008-1.012,0.159-1.57,1.335-1.519c1.512,0.066,3.029,0.009,4.544-0.011c0.829-0.01,1.123,0.44,1.117,1.2
	c-0.01,1.434-0.013,2.868-0.013,4.302c0,4.11-0.044,8.222,0.015,12.332c0.063,4.464,0.246,8.926,0.329,13.39
	c0.031,1.676-0.109,3.354-0.095,5.031c0.007,0.812-0.321,1.035-1.071,1.015c-1.397-0.038-2.796-0.004-4.194-0.012
	c-1.393-0.008-1.642-0.257-1.648-1.701c-0.023-5.472-0.037-10.942-0.054-16.414c0-0.279,0-0.56,0-0.839
	C60.559,112.202,60.478,112.202,60.396,112.202z"/>
<path fill-rule="evenodd" clip-rule="evenodd" fill="#BF2032" d="M44.097,52.666c-0.733,4.168,0.743,8.069,1.516,12.042
	c1.098,5.644,2.351,11.257,3.506,16.89c0.425,2.074-1.097,4.804-2.953,5.506c-0.638,0.241-1.118,0.22-1.565-0.378
	c-0.646-0.864-1.41-1.642-2.027-2.522c-0.296-0.424-0.498-0.996-0.523-1.512c-0.073-1.516-0.036-3.038-0.044-4.558
	c-0.002-0.36,0.062-0.737-0.025-1.077c-1.088-4.297-0.812-8.815-2.23-13.077c-0.804-2.415-1.242-4.955-1.789-7.45
	c-0.495-2.26-0.478-4.531,0.164-6.767c0.549-1.909,1.74-3.246,3.731-3.652c0.408-0.083,1.027,0.211,1.361,0.529
	c1.426,1.358,1.131,3.122,0.995,4.832C44.182,51.87,44.136,52.268,44.097,52.666z"/>
<path fill-rule="evenodd" clip-rule="evenodd" fill="#BF2032" d="M185.73,86.96c-0.315,0.448-0.631,0.897-0.946,1.347
	c-0.124-0.026-0.247-0.052-0.371-0.078c0.123-0.757,0.124-1.561,0.389-2.264c1.533-4.062,2.3-8.226,1.863-12.571
	c-0.088-0.873-0.284-1.736-0.364-2.609c-0.08-0.871-0.179-1.761-0.083-2.622c0.11-1.002,0.61-1.695,1.833-1.526
	c2.769,0.383,5.553,0.66,8.309,1.116c0.516,0.085,1.209,0.732,1.341,1.243c1.186,4.597,0.203,8.961-1.832,13.097
	c-0.501,1.018-1.647,1.718-2.67,2.446c0.037-4.47,0.959-8.826-0.641-13.138c-0.055,0.717-0.085,1.437-0.168,2.151
	c-0.313,2.691-0.475,5.416-1.021,8.06c-0.429,2.073-1.346,4.063-3.44,5.092c-0.604,0.296-1.323,0.353-1.99,0.519
	C185.868,87.135,185.8,87.048,185.73,86.96z"/>
<path fill-rule="evenodd" clip-rule="evenodd" d="M131.334,13.42c-3.743-1.639-7.418-3.481-11.26-4.863
	c-3.97-1.429-8.013-2.831-12.394-2.559c0.568,0.288,1.111,0.66,1.712,0.842c0.642,0.194,1.351,0.157,2.005,0.32
	c0.644,0.161,1.24,0.519,1.886,0.657c0.552,0.118,1.349-0.33,1.381,0.843c-2.625-0.476-5.18-1.068-7.768-1.378
	c-3.983-0.477-7.985-0.964-11.988-1.062c-3.117-0.075-6.276,0.257-9.363,0.747c-2.442,0.388-4.767,1.616-7.208,1.882
	c-3.399,0.372-6.242,2.148-9.408,3.057c-1.059,0.304-1.794,1.306-1.636,2.302c-2.247,0.783-4.522,1.576-6.98,2.434
	c1.875-1.497,3.546-2.831,5.225-4.171c-0.374,0.109-0.782,0.228-1.52,0.444c0.502-0.357,0.702-0.548,0.938-0.661
	c3.521-1.679,6.997-3.471,10.593-4.97c1.99-0.83,4.193-1.145,6.284-1.745c0.447-0.128,0.799-0.584,1.246-0.717
	c0.985-0.294,1.992-0.581,3.009-0.682c1.464-0.147,2.955-0.045,4.417-0.204c1.31-0.142,2.597-0.494,3.855-0.969
	c-1.674-0.078-3.349-0.157-5.024-0.235c-0.017-0.11-0.034-0.219-0.05-0.329c0.412-0.104,0.822-0.287,1.236-0.297
	c1.198-0.03,2.4-0.017,3.597,0.042c0.289,0.014,0.553,0.306,0.849,0.416c0.322,0.12,0.8,0.363,0.981,0.233
	c1.363-0.979,2.86-0.413,4.274-0.379c1.18,0.028,2.351,0.437,3.526,0.678c0.077,0.016,0.188,0.084,0.225,0.055
	c1.007-0.804,1.44,0.037,1.999,0.359c0.398,0,0.803-0.045,1.193,0.009c0.997,0.138,2,0.267,2.979,0.496
	c1.604,0.376,3.184,0.861,4.787,1.238c0.73,0.171,1.545,0.057,2.232,0.311c1.208,0.447,2.334,1.109,3.518,1.627
	c2.032,0.889,4.14,1.625,6.106,2.638c1.474,0.759,2.79,1.833,4.143,2.813C131.165,12.813,131.232,13.212,131.334,13.42z"/>
<path fill-rule="evenodd" clip-rule="evenodd" d="M103.411,147.996c1.136-0.489,1.707-1.432,2.992-0.993
	c0.611,0.208,1.459-0.265,2.197-0.438c1.617-0.379,3.229-0.784,4.853-1.132c0.425-0.092,0.887-0.014,1.246-0.165
	c1.277-0.448,2.527-1.123,3.841-1.283c1.396-0.17,2.37-0.986,3.504-1.57c0.344-0.178,0.614-0.498,1.014-0.834
	c-2.512-0.191-4.425,1.878-6.814,1.678c-0.03-0.103-0.06-0.204-0.09-0.307c1.396-0.559,2.835-1.031,4.18-1.693
	c4.136-2.036,8.341-3.966,12.314-6.287c2.641-1.543,5.042-3.562,7.341-5.604c1.704-1.514,2.88-3.644,4.637-5.076
	c2.495-2.033,3.826-4.897,5.839-7.258c0.507-0.595,1.057-1.453,0.24-2.326c-0.065-0.07-0.022-0.326,0.056-0.433
	c1.222-1.644,2.457-3.277,3.861-4.782c-0.343,0.902-0.686,1.806-1.027,2.709c0.128,0.053,0.256,0.105,0.384,0.159
	c1.403-2.772,2.806-5.545,4.209-8.317c0.149,0.081,0.3,0.162,0.449,0.242c-2.673,7.248-6.499,13.865-11.303,20.062
	c0.021-0.271,0.037-0.485,0.082-1.069c-0.511,0.764-0.838,1.251-1.229,1.837c-1.625-0.175-1.215,1.569-1.95,2.427
	c0.05-0.291,0.099-0.582,0.165-0.975c-0.92,0.534-1.764,1.025-2.916,1.694c0.783,0.257,1.25,0.409,1.856,0.608
	c-0.512,0.378-1.038,0.768-1.565,1.158c0.03,0.057,0.061,0.113,0.091,0.17c0.314-0.146,0.629-0.293,0.943-0.439
	c-2.076,2.982-5.541,4.424-7.704,7.297c1.322-0.785,2.646-1.569,3.968-2.354c0.069,0.04,0.138,0.079,0.207,0.118
	c-0.202,0.292-0.344,0.67-0.617,0.859c-0.981,0.683-1.947,1.671-3.032,1.85c-1.294,0.214-1.886,1.051-2.762,1.71
	c-1.169,0.88-2.494,1.557-3.775,2.28c-0.293,0.166-0.68,0.166-1.021,0.246c-0.259,0.062-0.681,0.059-0.746,0.208
	c-0.446,1.023-1.089,0.64-1.49,0.411c-0.459,0.343-0.747,0.641-1.098,0.803c-0.994,0.461-2.002,0.9-3.028,1.286
	c-1.018,0.383-1.963,0.833-3.128,0.972c-1.764,0.21-3.454,1.019-5.179,1.566c-0.146,0.046-0.354,0.112-0.455,0.048
	c-1.102-0.713-1.915,0.271-2.864,0.444c-1.241,0.227-2.5,0.375-3.758,0.48C105.461,148.055,104.584,147.996,103.411,147.996z"/>
<path fill-rule="evenodd" clip-rule="evenodd" fill="#BF2032" d="M119.658,48.75c-1.365-1.572-1.336-2.519,0.101-3.932
	c0.228-0.224,0.533-0.413,0.662-0.685c1.015-2.129,2.897-2.396,4.937-2.366c0.869,0.013,1.737,0.002,2.693,0.002
	c-0.085,0.492-0.149,0.868-0.23,1.34c1.806,0.69,3.585,1.369,5.579,2.131c-0.416,0.562-0.693,1.149-1.148,1.518
	c-4.119,3.341-7.313,7.346-9.101,12.394c-0.065,0.185-0.167,0.362-0.279,0.523c-0.062,0.088-0.183,0.136-0.471,0.34
	c-1.201-1.796-2.461-3.531-3.523-5.379c-0.25-0.434-0.029-1.386,0.307-1.866c1.164-1.659,2.474-3.215,3.999-5.154
	C121.825,48.054,120.736,48.403,119.658,48.75z"/>
<path fill-rule="evenodd" clip-rule="evenodd" fill="#BF2032" d="M40.217,25.336c1.01-0.236,1.834,0.262,2.312,1.169
	c0.741,1.406,1.425,2.854,1.978,4.343c0.403,1.085-0.415,2.811-1.446,3.345c-0.237,0.123-0.623,0.07-0.903-0.019
	c-2.077-0.654-3.798-1.823-5.137-3.562c-0.478-0.621-0.704-1.222-0.359-1.975c0.132-0.288,0.181-0.612,0.286-0.914
	C37.649,25.708,37.973,25.466,40.217,25.336z"/>
<path fill-rule="evenodd" clip-rule="evenodd" d="M63.2,144.619c0.672-0.771,1.11-1.274,1.582-1.815
	c0.341,0.175,0.648,0.332,1.054,0.541c-0.233,0.724-0.458,1.419-0.682,2.114c0.054,0.037,0.108,0.074,0.163,0.111
	c0.491-0.521,0.983-1.044,1.512-1.605c0.404,0.229,0.776,0.439,1.302,0.737c-1.977,2.497-3.89,4.913-5.82,7.353
	c-0.453-0.264-0.791-0.461-1.209-0.704c0.31-0.907,0.61-1.788,0.902-2.646c-1.116,0.259-1.068,2.919-3.117,1.288
	c1.194-2.825,2.38-5.633,3.562-8.431C64.648,141.912,63.352,143.268,63.2,144.619z"/>
<path fill-rule="evenodd" clip-rule="evenodd" d="M83.515,143.932c-0.572,0.165-0.779,0.225-0.996,0.286
	c0.235,0.364,0.441,0.684,0.686,1.062c-0.43,0.27-0.77,0.482-1.205,0.755c0.109-0.37,0.194-0.658,0.258-0.875
	c-1.388-0.332-2.744-0.634-4.087-0.983c-1.542-0.401-3.111-0.746-4.602-1.293c-2.391-0.878-4.729-1.901-7.086-2.869
	c-0.107-0.044-0.204-0.213-0.286-0.201c-0.608,0.092-1.24-0.093-1.113-0.713c0.094-0.46,0.703-0.954,1.196-1.163
	c0.839-0.354,1.578-0.367,2.466,0.405c1.044,0.908,2.506,1.341,3.795,1.964c1.359,0.656,2.691,1.393,4.102,1.908
	c1.118,0.409,2.339,0.539,3.514,0.793c0.3,0.065,0.597,0.146,0.899,0.199c0.458,0.08,0.927,0.114,1.378,0.224
	C82.708,143.496,82.955,143.666,83.515,143.932z"/>
<path fill-rule="evenodd" clip-rule="evenodd" d="M98.641,161.324c-2.044,0.182-2.044,0.182-3.02-2.373
	c-0.056,0.444-0.167,0.891-0.155,1.333c0.028,1.048-0.428,1.276-1.276,0.898c0-3,0-5.976,0-8.886
	c1.519-0.487,1.666-0.406,1.99,0.871c0.201,0.792,0.422,1.579,0.868,2.339c0.072-1.086,0.145-2.172,0.216-3.255
	c1.059-0.345,1.425-0.071,1.398,1.011C98.597,155.936,98.641,158.61,98.641,161.324z"/>
<path fill-rule="evenodd" clip-rule="evenodd" d="M100.069,161.428c-0.174-3.146-0.339-6.122-0.516-9.32
	c1.141,0,2.214-0.096,3.253,0.05c0.377,0.053,0.931,0.659,0.964,1.05c0.188,2.258,0.313,4.527,0.289,6.791
	c-0.005,0.433-0.704,1.094-1.2,1.233C102.013,161.469,101.072,161.377,100.069,161.428z M101.932,153.713
	c-0.171,0.023-0.341,0.047-0.512,0.07c0.099,1.953,0.196,3.906,0.297,5.919c0.721-0.443,0.78-0.449,0.65-1.821
	C102.234,156.496,102.431,155.035,101.932,153.713z"/>
<path fill-rule="evenodd" clip-rule="evenodd" d="M153.96,137.55c-2.314-2.109-4.54-4.138-7.218-6.578
	c0.865-0.647,1.579-1.319,2.416-1.753c0.475-0.246,1.368-0.362,1.701-0.087c1.74,1.439,3.415,2.972,4.977,4.603
	c0.305,0.319,0.211,1.331-0.062,1.82C155.362,136.288,154.63,136.842,153.96,137.55z M153.883,135.138
	c0.058-1.37-3.424-4.424-4.357-4.028C151.012,132.482,152.447,133.811,153.883,135.138z"/>
<path fill-rule="evenodd" clip-rule="evenodd" d="M161.275,110.936c0.805-1.229,0.727-2.914,2.434-3.267
	c1.242-0.256,2.756,0.664,3.163,1.469c1.747,0.483,3.188,0.881,4.626,1.278c-0.365,1.771-0.505,1.853-2.047,1.264
	c-0.445-0.17-0.864-0.427-1.321-0.545c-0.345-0.088-0.729-0.017-1.097-0.017c-0.021,0.142-0.043,0.283-0.064,0.425
	c1.131,0.52,2.262,1.039,3.486,1.601c-0.236,0.541-0.436,0.997-0.671,1.535C166.941,113.429,164.188,112.217,161.275,110.936z
	 M165.478,110.875c0.11-0.166,0.222-0.333,0.332-0.5c-0.55-0.324-1.083-0.684-1.661-0.943c-0.125-0.057-0.412,0.247-0.773,0.481
	C164.236,110.307,164.856,110.592,165.478,110.875z"/>
<path fill-rule="evenodd" clip-rule="evenodd" d="M116.146,159.336c-0.576,0.13-1.028,0.232-1.615,0.364
	c-0.744-2.977-1.473-5.894-2.245-8.982c1.516-0.161,2.846-1.265,4.18-0.01c0.917,0.861,1.043,2.618,0.583,3.336
	c0.703,1.578,1.331,2.984,1.957,4.389c-1.716,0.829-1.781,0.807-2.274-0.775c-0.153-0.494-0.229-1.019-0.431-1.49
	c-0.13-0.305-0.424-0.539-0.646-0.806c-0.106,0.053-0.213,0.106-0.319,0.159c0.125,0.635,0.243,1.271,0.377,1.904
	C115.842,158.034,115.987,158.641,116.146,159.336z M114.928,153.994c0.185-0.014,0.369-0.026,0.554-0.04
	c-0.056-0.584-0.055-1.184-0.2-1.745c-0.05-0.191-0.469-0.287-0.94-0.551C114.589,152.646,114.759,153.32,114.928,153.994z"/>
<path fill-rule="evenodd" clip-rule="evenodd" d="M149.976,140.886c-0.589,0.631-1.073,1.492-1.8,1.82
	c-0.575,0.262-1.705,0.139-2.139-0.279c-1.426-1.373-2.7-2.918-3.926-4.48c-0.674-0.859-0.311-1.743,0.434-2.447
	c0.745-0.707,1.726-1.276,2.546-0.487c1.598,1.538,3.005,3.275,4.47,4.949c0.139,0.159,0.125,0.451,0.183,0.682
	C149.82,140.724,149.898,140.805,149.976,140.886z M147.496,141.491c0.188-0.403,0.308-0.566,0.275-0.606
	c-1.158-1.447-2.327-2.886-3.513-4.311c-0.058-0.069-0.403-0.022-0.408,0.008c-0.038,0.205-0.109,0.495-0.006,0.62
	C145.002,138.596,146.188,139.965,147.496,141.491z"/>
<path fill-rule="evenodd" clip-rule="evenodd" d="M168.421,116.409c-0.005,2.281-1.604,3.369-3.349,2.543
	c-1.544-0.731-3.04-1.568-4.527-2.411c-1.068-0.606-1.31-1.526-0.799-2.649c0.564-1.24,1.456-1.806,2.551-1.316
	c1.849,0.825,3.64,1.79,5.401,2.791C168.104,115.597,168.291,116.213,168.421,116.409z M166.516,117.674
	c-0.096-1.065-0.094-1.07-4.181-3.117c-0.3-0.15-0.669-0.162-1.005-0.237c-0.057,0.16-0.112,0.32-0.169,0.481
	C162.897,115.732,164.634,116.664,166.516,117.674z"/>
<path fill-rule="evenodd" clip-rule="evenodd" d="M129.037,154.881c-0.981,0.766-1.568,0.669-2.047-0.299
	c-0.128-0.261-0.619-0.342-1.257-0.663c0.174,0.993,0.274,1.563,0.39,2.227c-0.407,0.166-0.799,0.326-1.29,0.526
	c-0.131-0.332-0.268-0.604-0.348-0.89c-0.674-2.411-1.316-4.831-2.016-7.234c-0.171-0.587-0.088-0.945,0.515-1.069
	c0.623-0.129,1.325-1.05,1.878-0.106C126.307,149.833,127.644,152.357,129.037,154.881z"/>
<path fill-rule="evenodd" clip-rule="evenodd" d="M87.965,160.539c0.666-2.822,1.295-5.569,1.988-8.3
	c0.063-0.248,0.532-0.538,0.823-0.551c0.54-0.022,1.089,0.146,1.716,0.248c0,3.062,0,6.076,0,9.09
	c-1.31,0.197-1.32,0.166-1.533-1.031c-0.058-0.326-0.338-0.612-0.516-0.918c-0.231,0.249-0.627,0.475-0.664,0.749
	C89.62,161.008,88.93,160.851,87.965,160.539z"/>
<path fill-rule="evenodd" clip-rule="evenodd" d="M60.125,143.677c-0.501-0.382-0.843-0.644-1.189-0.908
	c0.222-0.494,0.417-0.931,0.655-1.461c-1.156,0.168-1.42,0.623-1.066,1.531c0.827,2.13,0.63,3.075-0.919,4.567
	c-0.839,0.809-1.693,0.747-2.588,0.107c-1.027-0.734-1.315-1.559-0.797-2.563c0.288-0.558,0.686-1.058,1.102-1.686
	c0.462,0.324,0.837,0.587,1.277,0.896c-0.206,0.322-0.426,0.562-0.52,0.843c-0.107,0.322-0.102,0.683-0.146,1.025
	c0.287-0.163,0.614-0.282,0.854-0.497c0.614-0.552,0.495-1.204,0.15-1.848c-0.706-1.318-0.364-2.443,0.578-3.501
	c0.854-0.96,1.832-1.118,2.848-0.392c0.995,0.71,1.183,1.607,0.545,2.704C60.693,142.867,60.434,143.214,60.125,143.677z"/>
<path fill-rule="evenodd" clip-rule="evenodd" d="M133.255,148.865c0.562-0.309,0.968-0.53,1.344-0.735
	c0.464,0.549,0.863,1.019,1.404,1.657c0.24-1.549-0.291-2.258-1.624-2.217c-1.506,0.048-2.379-0.637-2.973-1.923
	c-0.549-1.188-0.326-2.116,0.743-2.767c1.105-0.673,1.992-0.478,2.777,0.632c0.227,0.32,0.408,0.672,0.682,1.127
	c-0.434,0.261-0.825,0.497-1.288,0.775c-0.145-0.177-0.252-0.329-0.381-0.459c-0.212-0.214-0.432-0.423-0.671-0.605
	c-0.021-0.016-0.317,0.226-0.298,0.274c0.125,0.322,0.228,0.756,0.48,0.899c0.348,0.196,0.821,0.22,1.242,0.226
	c1.75,0.025,3.416,1.664,3.467,3.421c0.031,1.078-0.708,1.533-1.516,1.929c-0.766,0.375-1.511,0.286-2.074-0.353
	C134.104,150.217,133.751,149.587,133.255,148.865z"/>
<path fill-rule="evenodd" clip-rule="evenodd" d="M84.689,153.96c-0.555-0.145-0.968-0.252-1.438-0.374
	c0.055-0.519,0.104-0.995,0.162-1.539c-1.086,0.393-1.289,1.124-0.459,1.733c1.719,1.263,1.504,2.825,0.897,4.486
	c-0.409,1.118-1.278,1.496-2.521,1.178c-1.143-0.293-1.702-1.037-1.571-2.178c0.067-0.586,0.227-1.161,0.37-1.869
	c0.525,0.129,0.966,0.238,1.475,0.363c-0.049,0.398-0.106,0.741-0.131,1.086c-0.021,0.284-0.004,0.571-0.004,0.954
	c1.176-0.677,1.358-1.603,0.45-2.429c-1.205-1.097-1.422-2.307-0.88-3.769c0.422-1.137,1.287-1.623,2.44-1.314
	c1.204,0.322,1.762,1.13,1.558,2.296C84.962,153.008,84.828,153.42,84.689,153.96z"/>
<path fill-rule="evenodd" clip-rule="evenodd" d="M68.707,153.59c-0.245,0.489-0.419,0.838-0.663,1.324
	c-1.131-0.546-2.214-1.067-3.375-1.628c1.318-2.846,2.581-5.573,3.902-8.428c1.139,0.558,2.186,1.069,3.305,1.616
	c-0.228,0.497-0.403,0.879-0.618,1.348c-0.604-0.268-1.135-0.503-1.792-0.794c-0.294,0.615-0.577,1.207-0.872,1.826
	c0.415,0.241,0.789,0.458,1.284,0.744c-0.205,0.44-0.394,0.847-0.61,1.312c-0.484-0.208-0.875-0.375-1.355-0.581
	c-0.363,0.724-0.712,1.418-1.088,2.169C67.462,152.868,68.034,153.2,68.707,153.59z"/>
<path fill-rule="evenodd" clip-rule="evenodd" d="M119.945,152.34c0.576-0.133,0.957-0.222,1.447-0.335
	c0.157,0.427,0.3,0.816,0.471,1.283c-0.474,0.211-0.893,0.397-1.385,0.617c0.237,0.749,0.473,1.493,0.723,2.284
	c0.707-0.178,1.348-0.339,2.063-0.519c0.165,0.457,0.309,0.857,0.501,1.394c-1.01,0.336-1.967,0.704-2.955,0.947
	c-0.24,0.059-0.763-0.229-0.849-0.467c-0.942-2.615-1.824-5.254-2.784-8.067c1.155-0.382,2.257-0.745,3.47-1.146
	c0.19,0.498,0.338,0.884,0.529,1.386c-0.605,0.23-1.143,0.436-1.812,0.69C119.558,151.049,119.743,151.668,119.945,152.34z"/>
<path fill-rule="evenodd" clip-rule="evenodd" d="M73.736,152.774c-0.485-0.179-0.855-0.314-1.366-0.502
	c-0.316,0.743-0.63,1.482-0.964,2.266c0.685,0.317,1.289,0.598,1.952,0.906c-0.182,0.472-0.334,0.866-0.539,1.397
	c-1.145-0.45-2.232-0.878-3.494-1.375c1.107-2.906,2.186-5.739,3.313-8.699c1.189,0.489,2.267,0.934,3.425,1.41
	c-0.21,0.507-0.371,0.893-0.559,1.344c-0.642-0.216-1.191-0.4-1.823-0.612c-0.252,0.62-0.489,1.201-0.744,1.829
	c0.443,0.238,0.853,0.461,1.332,0.719C74.099,151.881,73.94,152.271,73.736,152.774z"/>
<path fill-rule="evenodd" clip-rule="evenodd" d="M159.688,130.991c-2.6-1.901-5.004-3.66-7.51-5.494
	c0.762-0.993,1.456-1.898,2.238-2.918c0.426,0.319,0.78,0.587,1.184,0.891c-0.397,0.579-0.729,1.062-1.094,1.596
	c0.534,0.403,1.033,0.78,1.58,1.192c0.342-0.369,0.633-0.684,1.017-1.099c0.358,0.26,0.728,0.528,1.131,0.821
	c-0.286,0.456-0.534,0.853-0.805,1.284c0.649,0.489,1.278,0.961,1.93,1.451c0.477-0.554,0.89-1.035,1.378-1.604
	c0.384,0.27,0.756,0.531,1.231,0.864C161.192,129.001,160.46,129.97,159.688,130.991z"/>
<path fill-rule="evenodd" clip-rule="evenodd" d="M159.763,117.062c-0.364,0.625-0.678,1.165-1.022,1.756
	c0.555,0.356,1.055,0.677,1.636,1.051c0.29-0.397,0.558-0.765,0.903-1.238c0.406,0.23,0.803,0.455,1.276,0.725
	c-0.215,0.437-0.402,0.816-0.67,1.358c0.746,0.45,1.511,0.921,2.283,1.378c1.263,0.747,1.282,0.864,0.212,2.113
	c-2.574-1.53-5.166-3.071-7.916-4.706c0.653-1.096,1.258-2.106,1.936-3.241C158.883,116.543,159.304,116.791,159.763,117.062z"/>
<path fill-rule="evenodd" clip-rule="evenodd" d="M127.838,147.204c-0.428,0.137-0.759,0.242-1.229,0.393
	c-0.218-0.416-0.429-0.816-0.722-1.377c1.32-0.657,2.581-1.285,3.958-1.971c0.273,0.541,0.496,0.981,0.736,1.456
	c-0.41,0.269-0.736,0.481-1.121,0.732c1.085,2.246,2.153,4.458,3.261,6.751c-0.511,0.257-0.928,0.468-1.498,0.755
	C130.102,151.713,129,149.518,127.838,147.204z"/>
<path fill-rule="evenodd" clip-rule="evenodd" d="M107.634,153.033c-0.499-1.198-0.133-1.652,1.009-1.725
	c0.98-0.062,1.951-0.294,2.997-0.462c0.12,0.568,0.216,1.024,0.326,1.55c-0.401,0.129-0.767,0.246-1.29,0.415
	c0.374,2.421,0.748,4.843,1.138,7.369c-0.563,0.115-1.044,0.213-1.635,0.334c-0.445-2.547-0.869-4.97-1.299-7.427
	C108.432,153.068,108.043,153.051,107.634,153.033z"/>
<path fill-rule="evenodd" clip-rule="evenodd" d="M76.67,158.131c-0.556-0.186-0.997-0.334-1.582-0.529
	c0.754-2.416,1.485-4.758,2.233-7.153c-0.372-0.209-0.706-0.396-1.134-0.636c0.137-0.447,0.27-0.885,0.451-1.478
	c1.447,0.472,2.79,0.908,4.198,1.367c-0.177,0.577-0.314,1.022-0.473,1.539c-0.426-0.079-0.798-0.149-1.319-0.246
	C78.264,153.341,77.479,155.699,76.67,158.131z"/>
<path fill-rule="evenodd" clip-rule="evenodd" d="M144.957,145.489c-0.425,0.327-0.793,0.611-1.322,1.019
	c-1.537-2.014-3.046-3.989-4.582-6.002c-0.384,0.206-0.722,0.387-1.165,0.625c-0.292-0.411-0.558-0.783-0.903-1.271
	c1.157-0.868,2.263-1.697,3.483-2.611c0.353,0.424,0.67,0.805,1.111,1.336c-0.382,0.256-0.734,0.491-1.141,0.764
	C141.986,141.452,143.442,143.431,144.957,145.489z"/>
<path fill-rule="evenodd" clip-rule="evenodd" d="M158.852,132.028c-0.406,0.492-0.704,0.854-1.084,1.314
	c-2.414-1.963-4.751-3.862-7.208-5.86c0.367-0.441,0.702-0.844,1.087-1.307C154.076,128.149,156.418,130.052,158.852,132.028z"/>
<path fill-rule="evenodd" clip-rule="evenodd" d="M91.033,147.186c-2.493,0.286-4.812-0.271-7.087-1.075
	c-0.019-0.142-0.038-0.283-0.057-0.425c0.401-0.103,0.807-0.308,1.202-0.289c1.239,0.06,2.514,0.052,3.696,0.367
	C89.604,145.982,90.289,146.694,91.033,147.186z"/>
<path fill-rule="evenodd" clip-rule="evenodd" d="M111.138,145.194c-0.712,0.061-1.435,0.065-2.133,0.197
	c-0.768,0.145-1.503,0.458-2.271,0.589c-0.305,0.052-0.66-0.19-0.953-0.512c1.837,0.13,3.58-0.949,5.392-0.246L111.138,145.194z"/>
<path fill-rule="evenodd" clip-rule="evenodd" d="M120.937,10.356c3.755,0.616,4.551,1.03,4.351,2.143
	C123.906,11.819,122.513,11.132,120.937,10.356z"/>
<path fill-rule="evenodd" clip-rule="evenodd" d="M120.729,9.697c-1.068,0.629-2.689-0.044-3.206-1.22
	C118.602,8.888,119.543,9.246,120.729,9.697z"/>
<path fill-rule="evenodd" clip-rule="evenodd" d="M173.298,105.915c-0.515,0.314-0.845,0.676-1.096,0.628
	c-0.293-0.057-0.517-0.472-0.771-0.73c0.265-0.236,0.524-0.653,0.793-0.659C172.506,105.146,172.796,105.536,173.298,105.915z"/>
<path fill-rule="evenodd" clip-rule="evenodd" d="M173,102.238c0.398,0.499,0.791,0.782,0.814,1.093
	c0.017,0.219-0.478,0.67-0.73,0.661c-0.278-0.01-0.691-0.393-0.763-0.683C172.267,103.087,172.651,102.757,173,102.238z"/>
<path fill-rule="evenodd" clip-rule="evenodd" d="M111.172,145.223c-0.02-0.211-0.135-0.502-0.039-0.618
	c0.329-0.399,2.185-0.442,2.839,0.011c-1.042,0.21-1.941,0.392-2.838,0.576C111.138,145.194,111.172,145.223,111.172,145.223z"/>
<path fill-rule="evenodd" clip-rule="evenodd" d="M172.377,108.503c-0.552,0.292-0.892,0.622-1.141,0.563
	c-0.283-0.065-0.486-0.479-0.724-0.74c0.271-0.215,0.542-0.598,0.812-0.598C171.599,107.729,171.872,108.108,172.377,108.503z"/>
<path fill-rule="evenodd" clip-rule="evenodd" fill="#BF2032" d="M129.124,58.596c-0.114-1.994,1.005-3.54,2.916-3.962
	C131.068,55.955,130.097,57.275,129.124,58.596z"/>
<path fill-rule="evenodd" clip-rule="evenodd" fill="#BF2032" d="M148.229,60.675c-0.541,0.654-1.083,1.309-1.625,1.963
	c-0.104-0.019-0.209-0.037-0.314-0.055c0.046-0.565-0.102-1.277,0.188-1.655c0.3-0.392,1.021-0.461,1.559-0.672
	C148.1,60.396,148.164,60.536,148.229,60.675z"/>
<path fill-rule="evenodd" clip-rule="evenodd" fill="#BF2032" d="M166.734,19.41c-0.819,2.224-1.639,4.447-2.545,6.904
	c-0.564-1.394,0.523-4.676,2.101-7.021C166.438,19.333,166.586,19.371,166.734,19.41z"/>
</svg>
